<svg xmlns="http://www.w3.org/2000/svg" xmlns:xlink="http://www.w3.org/1999/xlink" version="1.1" width="256" height="256" viewBox="0 0 256 256" xml:space="preserve">
<g style="stroke: none; stroke-width: 0; stroke-dasharray: none; stroke-linecap: butt; stroke-linejoin: miter; stroke-miterlimit: 10; fill: none; fill-rule: nonzero; opacity: 1;" transform="translate(1.4065934065934016 1.4065934065934016) scale(2.81 2.81)">
	<path d="M 60.073 81.838 c -7.524 -10.128 -4.977 -18.536 0.347 -24.187 c 7.852 -7.96 20.756 -6.206 23.656 -14.839 c 4.608 10.658 9.404 21.459 2.353 32.446 C 80.631 82.958 70.529 84.333 60.073 81.838" style="stroke: none; stroke-width: 1; stroke-dasharray: none; stroke-linecap: butt; stroke-linejoin: miter; stroke-miterlimit: 10; fill: rgb(141,230,36); fill-rule: nonzero; opacity: 1;" transform=" matrix(1 0 0 1 0 0) " stroke-linecap="round"/>
	<path d="M 51.475 87.257 c -0.4 0 -0.779 -0.242 -0.933 -0.639 c -0.199 -0.516 0.057 -1.095 0.571 -1.294 c 13.36 -5.171 19.846 -11.418 25.701 -24.757 c 0.223 -0.506 0.812 -0.734 1.318 -0.514 c 0.505 0.223 0.735 0.813 0.514 1.318 c -6.029 13.733 -13.045 20.489 -26.811 25.817 C 51.717 87.235 51.595 87.257 51.475 87.257 z" style="stroke: none; stroke-width: 1; stroke-dasharray: none; stroke-linecap: butt; stroke-linejoin: miter; stroke-miterlimit: 10; fill: rgb(110,186,30); fill-rule: nonzero; opacity: 1;" transform=" matrix(1 0 0 1 0 0) " stroke-linecap="round"/>
	<path d="M 8.024 47.835 c 12.447 -2.067 18.763 4.039 21.358 11.356 c 3.495 10.621 -3.96 21.299 2.396 27.822 C 20.191 86.244 8.392 85.577 1.839 74.286 C -2.362 65.612 1.028 55.997 8.024 47.835" style="stroke: none; stroke-width: 1; stroke-dasharray: none; stroke-linecap: butt; stroke-linejoin: miter; stroke-miterlimit: 10; fill: rgb(141,230,36); fill-rule: nonzero; opacity: 1;" transform=" matrix(1 0 0 1 0 0) " stroke-linecap="round"/>
	<path d="M 18.523 74.074 c -0.291 0 -0.579 -0.126 -0.776 -0.369 C 8.284 62.068 5.478 52.741 7.025 38.063 c 0.058 -0.549 0.544 -0.942 1.1 -0.89 c 0.549 0.058 0.947 0.55 0.89 1.1 c -1.502 14.247 1.093 22.869 10.285 34.17 c 0.349 0.429 0.284 1.059 -0.145 1.406 C 18.968 74.001 18.745 74.074 18.523 74.074 z" style="stroke: none; stroke-width: 1; stroke-dasharray: none; stroke-linecap: butt; stroke-linejoin: miter; stroke-miterlimit: 10; fill: rgb(110,186,30); fill-rule: nonzero; opacity: 1;" transform=" matrix(1 0 0 1 0 0) " stroke-linecap="round"/>
	<path d="M 62.096 27.433 c -7.751 9.956 -16.533 9.747 -23.401 6.125 c -9.768 -5.441 -11.524 -18.345 -20.618 -18.833 c 9.04 -7.288 18.168 -14.794 30.639 -10.934 C 57.685 7.323 61.708 16.691 62.096 27.433" style="stroke: none; stroke-width: 1; stroke-dasharray: none; stroke-linecap: butt; stroke-linejoin: miter; stroke-miterlimit: 10; fill: rgb(141,230,36); fill-rule: nonzero; opacity: 1;" transform=" matrix(1 0 0 1 0 0) " stroke-linecap="round"/>
	<path d="M 68.652 35.538 c -0.306 0 -0.607 -0.139 -0.804 -0.403 c -8.552 -11.493 -16.304 -16.074 -30.722 -18.154 c -0.547 -0.079 -0.926 -0.586 -0.847 -1.132 c 0.079 -0.547 0.591 -0.924 1.132 -0.847 c 14.846 2.142 23.23 7.098 32.042 18.939 c 0.329 0.443 0.237 1.07 -0.206 1.399 C 69.069 35.474 68.859 35.538 68.652 35.538 z" style="stroke: none; stroke-width: 1; stroke-dasharray: none; stroke-linecap: butt; stroke-linejoin: miter; stroke-miterlimit: 10; fill: rgb(110,186,30); fill-rule: nonzero; opacity: 1;" transform=" matrix(1 0 0 1 0 0) " stroke-linecap="round"/>
</g>
</svg>