<svg xmlns="http://www.w3.org/2000/svg" xmlns:xlink="http://www.w3.org/1999/xlink" width="465" zoomAndPan="magnify" viewBox="0 0 348.75 226.499993" height="302" preserveAspectRatio="xMidYMid meet" version="1.2"><defs><clipPath id="86e7b8a627"><path d="M 106.238281 0 L 242 0 L 242 226 L 106.238281 226 Z M 106.238281 0 "/></clipPath></defs><g id="5f7737c288"><g clip-rule="nonzero" clip-path="url(#86e7b8a627)"><path style=" stroke:none;fill-rule:nonzero;fill:#ffffff;fill-opacity:0.498;" d="M 125.332031 224.484375 C 122.507812 221.480469 121.65625 217.347656 123.859375 217.347656 C 126.027344 217.347656 125.222656 213.796875 122.917969 213.195312 C 121.710938 212.878906 133.992188 212.554688 150.210938 212.472656 L 179.703125 212.324219 L 179.28125 219.0625 C 178.867188 225.679688 178.808594 225.773438 175.835938 224.398438 C 173.261719 223.203125 173.09375 222.789062 174.6875 221.601562 C 175.71875 220.835938 176.5625 219.847656 176.5625 219.40625 C 176.5625 217.914062 171.757812 218.589844 171.121094 220.171875 C 170.742188 221.109375 170.449219 220.855469 170.390625 219.546875 C 170.292969 217.445312 171.570312 216.8125 174.996094 217.253906 C 175.859375 217.367188 176.5625 216.585938 176.5625 215.523438 C 176.5625 214.144531 175.296875 213.585938 172.171875 213.585938 L 167.78125 213.585938 L 167.78125 219.859375 C 167.78125 223.308594 167.214844 226.132812 166.523438 226.132812 C 165.835938 226.132812 165.269531 225.003906 165.269531 223.625 C 165.269531 221.949219 164.433594 221.113281 162.761719 221.113281 C 161.378906 221.113281 160.25 221.746094 160.25 222.523438 C 160.25 223.492188 159.65625 223.4375 158.351562 222.355469 C 156.917969 221.164062 156.800781 220.367188 157.867188 219.082031 C 159.640625 216.941406 158.441406 213.585938 155.898438 213.585938 C 154.421875 213.585938 153.964844 215.109375 153.9375 220.171875 C 153.902344 225.554688 153.617188 226.417969 152.363281 224.878906 C 151.519531 223.84375 149.984375 222.8125 148.953125 222.582031 C 147.917969 222.355469 146.183594 221.367188 145.09375 220.386719 C 142.523438 218.074219 141.515625 218.140625 138.554688 220.800781 C 136.21875 222.902344 136.136719 222.890625 136.589844 220.488281 C 136.949219 218.59375 138.378906 217.800781 142.398438 217.261719 C 147.140625 216.628906 147.644531 216.800781 147 218.832031 C 146.105469 221.652344 149.214844 221.941406 151.453125 219.246094 C 154.660156 215.382812 152.105469 213.78125 143.074219 214.003906 L 134.523438 214.210938 L 133.78125 220.488281 C 133.371094 223.9375 132.949219 225.554688 132.839844 224.082031 C 132.71875 222.464844 131.535156 221.117188 129.839844 220.671875 C 125.746094 219.601562 124.222656 221.816406 126.96875 224.847656 C 130.164062 228.382812 128.683594 228.050781 125.332031 224.484375 Z M 165.269531 216.722656 C 165.269531 214.421875 164.601562 213.585938 162.761719 213.585938 C 160.921875 213.585938 160.25 214.421875 160.25 216.722656 C 160.25 219.023438 160.921875 219.859375 162.761719 219.859375 C 164.601562 219.859375 165.269531 219.023438 165.269531 216.722656 Z M 132.40625 216.40625 C 132.171875 215.199219 130.867188 214.210938 129.507812 214.210938 C 128.144531 214.210938 126.839844 215.199219 126.609375 216.40625 C 126.292969 218.054688 127.019531 218.605469 129.507812 218.605469 C 131.992188 218.605469 132.722656 218.054688 132.40625 216.40625 Z M 217.816406 225.191406 C 216.257812 223.203125 216.300781 223.15625 218.289062 224.71875 C 219.5 225.664062 220.488281 226.652344 220.488281 226.914062 C 220.488281 227.949219 219.457031 227.28125 217.816406 225.191406 Z M 199.386719 223.308594 C 199.214844 220.792969 198.484375 219.859375 196.683594 219.859375 C 195.082031 219.859375 194.449219 220.476562 194.886719 221.613281 C 195.257812 222.578125 195.007812 223.710938 194.332031 224.128906 C 192.535156 225.238281 189.429688 223.746094 188.511719 221.332031 C 187.871094 219.648438 188.023438 219.542969 189.292969 220.800781 C 190.160156 221.664062 191.625 222.367188 192.546875 222.367188 C 193.832031 222.367188 193.910156 221.785156 192.878906 219.859375 C 191.667969 217.597656 191.925781 217.347656 195.449219 217.347656 C 201.738281 217.347656 199.160156 214.3125 192.15625 213.46875 C 188.664062 213.046875 194.707031 212.636719 206.054688 212.523438 L 226.136719 212.328125 L 225.703125 219.230469 C 225.292969 225.878906 222.996094 227.941406 222.996094 221.667969 C 222.996094 218.0625 221.015625 217.742188 217.617188 220.800781 C 215.277344 222.90625 215.195312 222.890625 215.648438 220.488281 C 215.957031 218.835938 217.292969 217.839844 219.558594 217.578125 C 225.195312 216.929688 223.875 213.585938 217.976562 213.585938 L 212.957031 213.585938 L 212.917969 220.171875 C 212.886719 225.554688 212.597656 226.417969 211.34375 224.878906 C 210.503906 223.84375 208.96875 222.816406 207.933594 222.597656 C 204.925781 221.964844 201.96875 218.421875 203.859375 217.722656 C 206.355469 216.796875 205.675781 213.585938 202.984375 213.585938 C 200.929688 213.585938 200.464844 214.636719 200.078125 220.171875 C 199.824219 223.796875 199.515625 225.207031 199.386719 223.308594 Z M 210.433594 219.246094 C 211.285156 218.222656 211.65625 216.527344 211.253906 215.484375 C 210.332031 213.082031 206.683594 212.988281 206.683594 215.363281 C 206.683594 216.34375 206.339844 218.039062 205.921875 219.128906 C 204.9375 221.699219 208.328125 221.785156 210.433594 219.246094 Z M 158.371094 207.308594 C 157.945312 206.621094 158.160156 206.054688 158.847656 206.054688 C 159.539062 206.054688 160.453125 206.621094 160.878906 207.308594 C 161.304688 208 161.089844 208.566406 160.402344 208.566406 C 159.710938 208.566406 158.796875 208 158.371094 207.308594 Z M 216.09375 207.308594 C 215.113281 205.722656 216.777344 205.722656 219.234375 207.308594 C 220.855469 208.359375 220.820312 208.527344 218.992188 208.546875 C 217.828125 208.554688 216.523438 208 216.097656 207.308594 Z M 142.949219 198.628906 C 132.160156 197.871094 129.546875 196.453125 130.628906 191.9375 C 131.003906 190.367188 130.386719 189.738281 128.449219 189.722656 C 120.773438 189.675781 116.332031 185.195312 116.332031 177.503906 C 116.332031 175.539062 115.746094 173.34375 115.03125 172.628906 C 112.738281 170.335938 116.40625 154.84375 119.765625 152.644531 C 121.328125 151.621094 122.605469 149.613281 122.605469 148.183594 C 122.605469 146.757812 123.734375 144.152344 125.117188 142.398438 C 126.496094 140.644531 127.625 139.808594 127.625 140.542969 C 127.625 141.277344 126.917969 142.621094 126.054688 143.535156 C 125.195312 144.445312 124.371094 147.167969 124.226562 149.585938 C 124.015625 153.179688 124.203125 153.566406 125.273438 151.703125 C 125.992188 150.457031 126.269531 148.621094 125.886719 147.625 C 125.09375 145.558594 127.0625 145.152344 128.285156 147.128906 C 128.730469 147.851562 128.433594 149.238281 127.625 150.210938 C 126.816406 151.1875 126.46875 152.492188 126.851562 153.117188 C 127.238281 153.738281 127.019531 156.101562 126.371094 158.371094 C 125.085938 162.84375 125.996094 166 127.761719 163.210938 C 128.601562 161.882812 128.847656 161.992188 128.859375 163.703125 C 128.871094 164.910156 128.429688 165.898438 127.875 165.898438 C 126.101562 165.898438 123.859375 162.957031 123.859375 160.628906 C 123.859375 159.386719 123.347656 158.371094 122.722656 158.371094 C 120.960938 158.371094 119.792969 169.925781 120.765625 177.714844 C 121.625 184.597656 123.859375 187.542969 123.859375 181.792969 C 123.859375 180.183594 124.285156 178.441406 124.800781 177.925781 C 125.320312 177.410156 125.824219 175.480469 125.921875 173.636719 C 126.1875 168.683594 126.269531 168.410156 127.496094 168.410156 C 129.015625 168.410156 128.578125 176.324219 126.996094 177.488281 C 126.285156 178.011719 126.65625 178.417969 127.867188 178.429688 C 129.035156 178.4375 130.792969 177.304688 131.769531 175.910156 C 133.363281 173.632812 133.714844 173.574219 135.179688 175.339844 C 136.078125 176.421875 137.640625 176.988281 138.65625 176.601562 C 140.773438 175.789062 148.957031 178.453125 148.957031 179.957031 C 148.957031 180.507812 149.644531 180.816406 150.480469 180.644531 C 151.320312 180.472656 152.582031 181.601562 153.289062 183.152344 C 154.605469 186.050781 157.269531 187.234375 156.113281 184.410156 C 154.207031 179.738281 154.164062 178.347656 156.042969 181.898438 C 157.226562 184.140625 158.902344 185.976562 159.761719 185.976562 C 160.753906 185.976562 159.902344 183.21875 157.441406 178.449219 C 154.835938 173.394531 152.800781 170.917969 151.257812 170.917969 C 148.410156 170.917969 148.367188 172 151.066406 175.972656 L 153.175781 179.074219 L 150.441406 176.683594 C 146.890625 173.585938 146.96875 171.136719 150.664062 169.730469 C 153.527344 168.644531 153.980469 167.398438 155.507812 156.488281 C 155.832031 154.191406 155.039062 153.945312 146.136719 153.609375 C 136.757812 153.257812 136.410156 153.347656 136.410156 156.085938 L 136.410156 158.929688 L 134.457031 156.140625 C 133.382812 154.605469 131.421875 153.351562 130.101562 153.351562 C 128.429688 153.351562 127.933594 152.75 128.464844 151.363281 C 128.886719 150.269531 129.574219 149.847656 129.996094 150.421875 C 131.171875 152.027344 136.921875 152.007812 137.957031 150.394531 C 138.613281 149.375 138.886719 149.433594 138.898438 150.601562 C 138.910156 151.503906 139.484375 151.894531 140.175781 151.46875 C 142.65625 149.933594 141.359375 148.507812 137.976562 149.050781 C 134.6875 149.574219 134.640625 149.511719 136.964844 147.710938 C 138.304688 146.671875 140.171875 145.820312 141.117188 145.820312 C 142.058594 145.820312 142.46875 145.230469 142.023438 144.511719 C 141.578125 143.789062 141.785156 142.511719 142.484375 141.671875 C 143.183594 140.828125 144.480469 137.324219 145.367188 133.882812 C 146.929688 127.824219 147.007812 127.746094 147.820312 131.390625 C 148.671875 135.195312 148.824219 134.75 149.414062 126.707031 C 149.554688 124.820312 150.425781 122.5625 151.355469 121.6875 C 152.765625 120.359375 152.929688 121.140625 152.347656 126.371094 C 151.960938 129.820312 151.265625 133.632812 150.796875 134.839844 C 150.21875 136.335938 150.546875 137.035156 151.828125 137.035156 C 152.863281 137.035156 154.046875 136.160156 154.457031 135.089844 C 155.148438 133.289062 153.734375 119.953125 151.957031 111.46875 C 151.410156 108.863281 151.613281 108.117188 152.691406 108.78125 C 153.660156 109.382812 154.097656 108.886719 153.9375 107.371094 C 153.339844 101.730469 154.40625 101.867188 155.289062 107.546875 C 156.707031 116.636719 156.683594 131.976562 155.25 136.980469 C 154.46875 139.695312 154.453125 141.574219 155.203125 142.035156 C 156.859375 143.0625 155.296875 148.332031 153.339844 148.332031 C 152.457031 148.332031 151.410156 149.179688 151.015625 150.214844 C 150.574219 151.359375 151.011719 152.09375 152.136719 152.09375 C 153.148438 152.09375 153.988281 151.390625 153.996094 150.527344 C 154.011719 149.371094 154.300781 149.40625 155.09375 150.660156 C 156.34375 152.628906 157.992188 150.761719 157.324219 148.128906 C 157.089844 147.207031 157.117188 146.8125 157.382812 147.257812 C 158.019531 148.328125 162.761719 147.054688 162.761719 145.8125 C 162.761719 145.28125 161.773438 144.921875 160.566406 145.019531 C 159.183594 145.128906 158.324219 144.261719 158.246094 142.683594 C 158.152344 140.773438 158.25 140.699219 158.648438 142.371094 C 159.144531 144.449219 161.675781 145.621094 161.359375 143.625 C 160.875 140.5625 161.773438 140.65625 163.433594 143.839844 C 165.460938 147.726562 164.152344 150.039062 160.679688 148.707031 C 159.753906 148.351562 158.996094 148.609375 158.996094 149.28125 C 158.996094 151.710938 164.601562 150.152344 166.011719 147.328125 C 167.175781 144.992188 166.996094 143.558594 165.085938 139.804688 C 163.484375 136.667969 163.179688 135.015625 164.140625 134.695312 C 164.921875 134.433594 166.054688 134.996094 166.652344 135.941406 C 167.398438 137.121094 167.75 136.351562 167.761719 133.511719 C 167.773438 131.167969 167.257812 129.683594 166.574219 130.105469 C 165.90625 130.519531 165.398438 129.292969 165.441406 127.355469 C 165.480469 125.433594 164.84375 121.144531 164.023438 117.824219 C 163.128906 114.226562 162.941406 110.425781 163.550781 108.414062 C 164.375 105.695312 164.703125 106.753906 165.238281 113.820312 C 165.796875 121.238281 166.125 122.214844 167.34375 120.09375 C 168.136719 118.714844 168.949219 113.351562 169.152344 108.175781 C 169.40625 101.636719 170.210938 97.746094 171.785156 95.433594 C 174.722656 91.121094 174.65625 90.210938 171.546875 92.152344 C 170.167969 93.015625 169.035156 94.710938 169.035156 95.925781 C 169.035156 97.140625 168.191406 98.136719 167.15625 98.136719 C 166.121094 98.136719 165.273438 99.058594 165.273438 100.1875 C 165.273438 101.671875 164.542969 101.308594 162.628906 98.878906 C 160.558594 96.246094 159.128906 95.613281 156.039062 95.960938 C 152.65625 96.34375 151.984375 97.023438 151.320312 100.722656 L 150.542969 105.035156 L 150.363281 100.015625 C 150.148438 94.171875 149.007812 89.316406 147.871094 89.429688 C 147.433594 89.476562 144.957031 92.054688 142.371094 95.164062 C 139.78125 98.273438 137.664062 100.152344 137.664062 99.339844 C 137.664062 98.53125 136.835938 98.183594 135.820312 98.574219 C 134.808594 98.960938 133.644531 98.742188 133.238281 98.082031 C 132.832031 97.421875 133.09375 96.878906 133.824219 96.878906 C 134.554688 96.878906 135.089844 95.609375 135.007812 94.058594 C 134.898438 91.933594 134.722656 91.777344 134.289062 93.429688 C 133.453125 96.628906 132.238281 96.144531 129.535156 91.546875 C 128.214844 89.304688 126.402344 86.722656 125.5 85.808594 C 124.597656 84.898438 123.859375 83.097656 123.859375 81.804688 C 123.859375 80.515625 123.222656 79.066406 122.445312 78.585938 C 120.515625 77.394531 121.910156 64.777344 124.558594 59.464844 C 125.765625 57.050781 126.292969 54.078125 125.839844 52.273438 C 125.414062 50.578125 125.609375 49.195312 126.269531 49.195312 C 127.59375 49.195312 129.574219 38.746094 129.003906 34.761719 C 128.808594 33.382812 127.828125 31.332031 126.828125 30.210938 C 125.222656 28.414062 125.273438 28.066406 127.257812 27.292969 C 129.261719 26.507812 129.113281 26.097656 125.914062 23.523438 L 122.320312 20.636719 L 118.085938 23.308594 C 115.753906 24.777344 113.480469 27.332031 113.027344 28.984375 C 112.574219 30.636719 111.097656 33.09375 109.75 34.441406 C 107.882812 36.308594 107.644531 37.242188 108.761719 38.339844 C 109.867188 39.429688 110.589844 39.320312 111.710938 37.898438 C 113.277344 35.910156 118.046875 34.882812 116.871094 36.785156 C 116.492188 37.398438 115.402344 37.898438 114.449219 37.898438 C 112.078125 37.898438 111.253906 39.542969 112.5625 41.65625 C 113.433594 43.066406 114.148438 42.808594 116.203125 40.34375 C 117.605469 38.652344 118.777344 36.566406 118.796875 35.703125 C 118.84375 33.96875 120.722656 33.820312 124.40625 35.261719 C 126.074219 35.914062 126.367188 36.5 125.34375 37.128906 C 124.527344 37.632812 123.34375 37.726562 122.710938 37.339844 C 119.59375 35.410156 121.136719 43.277344 124.335938 45.601562 C 125.730469 46.617188 124.199219 49.199219 122.21875 49.175781 C 121.082031 49.160156 121.085938 48.921875 122.242188 48.191406 C 123.328125 47.5 123.027344 46.765625 121.167969 45.605469 C 119.03125 44.273438 118.753906 44.28125 119.578125 45.648438 C 120.328125 46.894531 120.03125 46.867188 118.394531 45.539062 C 116.859375 44.292969 116.640625 43.503906 117.660156 42.875 C 118.707031 42.226562 118.722656 41.742188 117.71875 41.121094 C 116.957031 40.648438 116.257812 40.71875 116.171875 41.277344 C 115.367188 46.371094 115.71875 48.246094 117.746094 49.667969 C 119.03125 50.566406 119.660156 51.753906 119.144531 52.304688 C 118.632812 52.859375 119.820312 52.925781 121.785156 52.453125 C 124.425781 51.820312 125.21875 52.019531 124.820312 53.21875 C 123.871094 56.074219 119.945312 55.816406 117.820312 52.757812 C 116.695312 51.144531 113.640625 47.5 111.03125 44.660156 C 105.574219 38.71875 105.433594 38.074219 108.722656 33.890625 C 110.0625 32.191406 111.523438 29.339844 111.96875 27.554688 C 112.453125 25.636719 114.207031 23.71875 116.273438 22.863281 C 118.191406 22.070312 120.539062 19.964844 121.488281 18.191406 C 122.441406 16.414062 125.683594 13.902344 128.699219 12.609375 C 134.101562 10.292969 134.238281 10.296875 138.265625 12.785156 C 140.515625 14.175781 143.207031 15.3125 144.253906 15.3125 C 145.300781 15.3125 146.449219 16.441406 146.8125 17.820312 C 147.171875 19.203125 148.15625 20.332031 148.996094 20.332031 C 150.175781 20.332031 150.167969 19.90625 148.957031 18.449219 C 148.085938 17.394531 147.949219 16.566406 148.652344 16.566406 C 150.308594 16.566406 152.542969 10.761719 152.992188 5.285156 C 153.320312 1.296875 153.761719 0.84375 158.003906 0.160156 C 163.417969 -0.714844 164.605469 -0.164062 165.835938 3.769531 C 166.5625 6.089844 167.085938 6.371094 168.515625 5.183594 C 169.492188 4.375 170.292969 4.257812 170.292969 4.929688 C 170.292969 5.597656 168.074219 7.015625 165.363281 8.082031 C 160.832031 9.863281 160.5 9.851562 161.207031 7.957031 C 161.875 6.167969 161.699219 6.125 159.859375 7.621094 C 158.03125 9.109375 157.742188 9.058594 157.742188 7.234375 C 157.742188 5.589844 158.582031 5.253906 161.507812 5.714844 C 165.492188 6.34375 166.355469 5.222656 163.628906 2.960938 C 161.289062 1.015625 154.558594 3.074219 154.773438 5.664062 C 154.863281 6.785156 155.296875 9.117188 155.730469 10.84375 C 156.324219 13.207031 156.089844 13.824219 154.785156 13.324219 C 152.152344 12.3125 151.171875 17.921875 153.527344 20.527344 C 154.605469 21.71875 155.195312 23.433594 154.832031 24.335938 C 154.40625 25.402344 154.140625 25.210938 154.078125 23.78125 C 154.023438 22.574219 153.429688 21.585938 152.761719 21.585938 C 152.09375 21.585938 151.617188 23.5625 151.710938 25.976562 C 151.882812 30.574219 153.84375 31.675781 156.386719 28.609375 C 157.257812 27.558594 157.503906 25.402344 156.992188 23.273438 L 156.132812 19.703125 L 162.40625 25.453125 L 164.4375 22.351562 C 166.328125 19.46875 166.316406 19.207031 164.304688 18.679688 C 163.109375 18.367188 164.007812 18.046875 166.300781 17.964844 C 169.863281 17.84375 170.40625 17.414062 170.066406 15.011719 C 169.832031 13.367188 168.621094 12.015625 167.152344 11.761719 C 164.644531 11.320312 164.644531 11.320312 167.152344 13.320312 C 169.210938 14.957031 169.265625 15.179688 167.453125 14.546875 C 166.234375 14.121094 164.300781 14.546875 163.15625 15.484375 C 161.363281 16.953125 161.382812 16.707031 163.316406 13.742188 C 167.226562 7.730469 172.800781 9.957031 172.800781 17.53125 C 172.800781 21.199219 173.175781 21.707031 175.625 21.359375 C 177.898438 21.035156 178.449219 20.15625 178.449219 16.835938 C 178.449219 11.101562 183.320312 8.21875 186.511719 12.0625 C 187.636719 13.417969 187.628906 14.050781 186.472656 14.765625 C 185.511719 15.359375 185.289062 15.167969 185.863281 14.242188 C 187.300781 11.914062 182.863281 10.984375 180.6875 13.160156 C 177.660156 16.191406 179.582031 19.523438 183.792969 18.542969 C 185.683594 18.105469 186.574219 18.1875 185.769531 18.730469 C 184.679688 19.46875 184.753906 20.328125 186.066406 22.121094 C 187.757812 24.4375 187.90625 24.441406 190.320312 22.257812 C 191.695312 21.011719 192.46875 19.363281 192.039062 18.59375 C 191.476562 17.589844 191.691406 17.59375 192.792969 18.609375 C 194.003906 19.726562 193.9375 21.191406 192.476562 25.511719 C 191.457031 28.527344 190.066406 30.996094 189.382812 30.996094 C 188.699219 30.996094 186.96875 32.410156 185.535156 34.132812 C 183.828125 36.183594 182.910156 36.640625 182.882812 35.453125 C 182.851562 34.128906 182.464844 34.007812 181.460938 35.011719 C 180.457031 36.015625 179.421875 35.734375 177.667969 33.980469 C 175.746094 32.0625 174.738281 31.84375 172.738281 32.914062 C 171.351562 33.65625 170.558594 34.804688 170.96875 35.472656 C 171.382812 36.140625 172.152344 36.417969 172.679688 36.09375 C 173.207031 35.765625 173.636719 36.332031 173.636719 37.347656 C 173.636719 38.746094 172.953125 38.554688 170.84375 36.574219 C 169.242188 35.070312 167.71875 34.472656 167.285156 35.175781 C 166.867188 35.855469 165.335938 36.097656 163.878906 35.71875 C 161.652344 35.136719 161.347656 34.351562 161.933594 30.734375 C 162.425781 27.703125 162.1875 26.597656 161.128906 26.972656 C 160.300781 27.269531 159.761719 28.734375 159.929688 30.234375 C 160.1875 32.53125 159.871094 32.761719 157.90625 31.714844 C 156.242188 30.820312 154.902344 30.96875 153.210938 32.226562 C 150.910156 33.9375 150.925781 34.074219 153.734375 36.886719 C 156.425781 39.578125 156.746094 39.628906 158.230469 37.632812 C 159.710938 35.648438 160.058594 35.636719 162.863281 37.503906 C 164.535156 38.613281 166.617188 40.414062 167.5 41.503906 C 168.8125 43.132812 169.539062 43.207031 171.578125 41.9375 C 172.941406 41.085938 174.054688 40.890625 174.054688 41.507812 C 174.054688 44.269531 181.484375 42.035156 185.070312 38.199219 C 189.238281 33.738281 190.988281 33.179688 192.0625 35.96875 C 192.46875 37.03125 191.488281 38.808594 189.753906 40.175781 C 187.636719 41.84375 186.953125 43.34375 187.445312 45.242188 C 188.296875 48.492188 188.417969 48.507812 191.609375 45.777344 C 193.300781 44.332031 194.132812 42.070312 194.132812 38.949219 C 194.132812 36.382812 194.699219 33.933594 195.394531 33.503906 C 197.09375 32.453125 196.710938 17.644531 194.929688 15.421875 C 194.144531 14.449219 193.449219 12.753906 193.378906 11.65625 C 193.023438 6.148438 192.78125 5.273438 191.605469 5.273438 C 190.882812 5.273438 190.621094 6.890625 190.996094 9.035156 C 191.363281 11.109375 191.148438 12.800781 190.523438 12.800781 C 188.707031 12.800781 187.847656 9.261719 189.5 8.589844 C 190.5 8.183594 190.410156 7.945312 189.234375 7.882812 C 187.867188 7.804688 187.976562 7.226562 189.71875 5.296875 C 191.765625 3.035156 191.785156 2.746094 189.914062 2.027344 C 188.785156 1.59375 187.050781 1.550781 186.058594 1.929688 C 185.066406 2.308594 184.03125 1.949219 183.753906 1.125 C 183.378906 0.0078125 182.714844 0.0664062 181.160156 1.347656 C 180.015625 2.292969 179.074219 2.539062 179.074219 1.886719 C 179.074219 1.238281 176.816406 0.71875 174.054688 0.734375 C 171.296875 0.75 169.035156 1.285156 169.035156 1.917969 C 169.035156 2.550781 168.1875 2.367188 167.152344 1.507812 C 163.722656 -1.339844 165.179688 -1.894531 174.996094 -1.484375 C 192.785156 -0.738281 193.710938 -0.375 194.8125 6.257812 C 195.234375 8.820312 196.527344 12.78125 197.683594 15.054688 C 200.113281 19.84375 202.445312 19.769531 209.964844 14.667969 C 212.492188 12.953125 215.101562 11.546875 215.761719 11.546875 C 218.339844 11.546875 223.804688 15.707031 225.800781 19.183594 C 227.003906 21.28125 228.957031 22.839844 230.378906 22.839844 C 233.695312 22.839844 236.800781 26.125 236.800781 29.636719 C 236.800781 31.207031 237.929688 33.511719 239.3125 34.761719 C 240.691406 36.011719 241.820312 37.722656 241.820312 38.566406 C 241.820312 39.410156 238.203125 43.917969 233.777344 48.589844 C 228.226562 54.449219 225.117188 56.84375 223.738281 56.3125 C 222.640625 55.890625 221.742188 54.683594 221.742188 53.625 C 221.742188 52.570312 221.175781 51.703125 220.488281 51.703125 C 218.75 51.703125 218.90625 52.546875 221.3125 56.21875 C 224.03125 60.371094 225.476562 71.640625 223.945312 76.800781 C 223.640625 77.835938 222.933594 80.378906 222.375 82.449219 C 221.816406 84.519531 220.316406 87.558594 219.039062 89.207031 C 217.765625 90.851562 216.722656 92.699219 216.722656 93.308594 C 216.722656 93.921875 215.261719 96.734375 213.472656 99.566406 C 211.082031 103.359375 210.40625 105.746094 210.917969 108.640625 C 211.296875 110.800781 211.121094 114.542969 210.527344 116.957031 C 209.625 120.640625 209.429688 119.777344 209.320312 111.625 C 209.15625 99.027344 207.199219 98.96875 206.875 111.550781 C 206.539062 124.574219 205.429688 124.984375 205.429688 112.085938 C 205.429688 102 205.332031 101.675781 201.035156 97.253906 L 196.644531 92.730469 L 196.417969 101.394531 C 196.234375 108.398438 196.101562 108.917969 195.722656 104.097656 C 195.394531 99.953125 194.699219 98.136719 193.4375 98.136719 C 192.441406 98.136719 191.625 97.289062 191.625 96.253906 C 191.625 93.773438 189.113281 93.929688 185.914062 96.609375 C 183.835938 98.347656 183.441406 99.84375 183.875 104.382812 C 184.171875 107.476562 183.667969 114.816406 182.757812 120.699219 L 181.105469 131.390625 L 179.582031 125.117188 C 178.746094 121.664062 178.085938 115.734375 178.113281 111.9375 C 178.140625 108.144531 178.378906 106.449219 178.644531 108.175781 C 180.378906 119.476562 180.597656 120.171875 181.648438 117.585938 C 182.863281 114.585938 183.097656 106.125 182.070312 102.300781 C 181.644531 100.703125 180.421875 99.632812 179.136719 99.730469 C 177.59375 99.847656 177.125 100.636719 177.578125 102.367188 C 178.078125 104.269531 177.746094 104.652344 176.140625 104.035156 C 171.722656 102.339844 170.292969 104.347656 170.203125 112.386719 C 170.152344 116.628906 169.6875 124.613281 169.171875 130.136719 C 168.652344 135.671875 168.722656 140.507812 169.328125 140.917969 C 169.929688 141.324219 170.328125 142.171875 170.207031 142.800781 C 169.582031 146.121094 170.613281 147.078125 174.824219 147.078125 C 179.269531 147.078125 179.339844 147 178.578125 142.9375 C 178.058594 140.175781 178.425781 137.980469 179.671875 136.347656 C 181.421875 134.058594 181.492188 134.164062 180.777344 137.980469 C 180.265625 140.726562 180.503906 142.058594 181.511719 142.058594 C 182.472656 142.058594 182.703125 143.023438 182.152344 144.75 C 181.429688 147.035156 181.703125 147.339844 183.949219 146.75 C 185.410156 146.371094 186.925781 146.578125 187.316406 147.214844 C 187.710938 147.851562 188.578125 148.039062 189.238281 147.625 C 189.902344 147.214844 192.335938 146.707031 194.644531 146.492188 C 198.25 146.15625 198.757812 146.441406 198.21875 148.496094 C 197.722656 150.394531 197.226562 150.589844 195.835938 149.4375 C 194.441406 148.277344 194.226562 148.371094 194.808594 149.878906 C 195.207031 150.925781 196.925781 151.78125 198.625 151.78125 C 200.730469 151.78125 201.359375 151.335938 200.601562 150.371094 C 199.996094 149.59375 199.40625 147.972656 199.296875 146.761719 C 199.183594 145.554688 198.988281 143.53125 198.855469 142.265625 C 198.722656 141 197.882812 139.964844 196.984375 139.964844 C 195.941406 139.964844 195.609375 140.90625 196.0625 142.582031 C 196.617188 144.609375 196.136719 144.371094 193.917969 141.503906 C 192.347656 139.472656 190.960938 135.800781 190.835938 133.347656 C 190.707031 130.890625 190.222656 126.058594 189.753906 122.605469 C 189.25 118.882812 189.460938 115.054688 190.269531 113.195312 C 191.378906 110.644531 191.492188 111.347656 190.875 116.960938 C 189.953125 125.335938 192.316406 124.324219 194.023438 115.613281 L 195.113281 110.058594 L 195.25 115.429688 C 195.328125 118.386719 196.289062 122.902344 197.386719 125.46875 C 198.484375 128.035156 200.230469 132.914062 201.265625 136.3125 C 203.316406 143.054688 206.320312 148.332031 208.109375 148.332031 C 208.734375 148.332031 209.882812 146.9375 210.660156 145.230469 C 211.878906 142.550781 211.664062 141.78125 209.0625 139.566406 C 207.261719 138.027344 206.808594 137.132812 207.9375 137.332031 C 209.960938 137.691406 210.050781 136.460938 208.699219 127 C 208.054688 122.480469 208.347656 122.980469 210.15625 129.5 C 211.632812 134.808594 213.132812 137.785156 214.464844 138.042969 C 215.589844 138.257812 216.796875 139.1875 217.148438 140.105469 C 217.589844 141.257812 217.023438 141.574219 215.316406 141.125 C 212.894531 140.492188 212.890625 140.566406 215.097656 144.902344 C 216.335938 147.332031 217.773438 149.0625 218.292969 148.75 C 218.8125 148.4375 218.582031 146.941406 217.777344 145.433594 C 216.453125 142.949219 216.511719 142.851562 218.398438 144.40625 C 219.546875 145.355469 220.488281 146.90625 220.488281 147.859375 C 220.488281 148.808594 221.296875 149.585938 222.285156 149.585938 C 223.273438 149.585938 225.328125 151.335938 226.847656 153.472656 C 229.230469 156.820312 229.613281 158.980469 229.585938 168.988281 C 229.5625 177.703125 229.027344 181.421875 227.457031 183.820312 C 225.242188 187.199219 222.226562 188.9375 220.460938 187.847656 C 219.878906 187.488281 219.015625 187.828125 218.535156 188.601562 C 217.917969 189.605469 217.320312 189.519531 216.484375 188.308594 C 215.660156 187.125 215.542969 187.464844 216.097656 189.429688 C 217.332031 193.820312 215.726562 196.9375 211.464844 198.425781 C 207.390625 199.84375 162.210938 199.980469 142.949219 198.628906 Z M 150.578125 194.761719 C 150.214844 193.378906 149.703125 192.25 149.441406 192.25 C 149.175781 192.25 148.957031 193.378906 148.957031 194.761719 C 148.957031 196.140625 149.46875 197.269531 150.097656 197.269531 C 150.722656 197.269531 150.9375 196.140625 150.578125 194.761719 Z M 154.695312 194.96875 C 154.695312 193.703125 154.046875 192.667969 153.253906 192.667969 C 152.460938 192.667969 152.082031 193.703125 152.414062 194.96875 C 152.746094 196.234375 153.394531 197.269531 153.855469 197.269531 C 154.316406 197.269531 154.695312 196.234375 154.695312 194.96875 Z M 158.574219 195.464844 C 158.128906 194.304688 158.863281 193.472656 160.636719 193.128906 C 162.914062 192.6875 162.792969 192.5625 159.9375 192.421875 C 157.269531 192.289062 156.488281 192.820312 156.488281 194.761719 C 156.488281 196.140625 157.113281 197.269531 157.878906 197.269531 C 158.640625 197.269531 158.953125 196.460938 158.574219 195.46875 Z M 162.761719 196.015625 C 162.761719 195.324219 162.199219 194.761719 161.507812 194.761719 C 160.816406 194.761719 160.253906 195.324219 160.253906 196.015625 C 160.253906 196.707031 160.816406 197.269531 161.507812 197.269531 C 162.199219 197.269531 162.761719 196.707031 162.761719 196.015625 Z M 170.292969 195.859375 C 170.292969 195.253906 168.878906 194.761719 167.15625 194.761719 C 165.429688 194.761719 164.015625 195.253906 164.015625 195.859375 C 164.015625 196.464844 165.429688 196.957031 167.15625 196.957031 C 168.878906 196.957031 170.292969 196.464844 170.292969 195.859375 Z M 176.566406 196.015625 C 176.566406 195.324219 175.4375 194.761719 174.054688 194.761719 C 172.675781 194.761719 171.546875 195.324219 171.546875 196.015625 C 171.546875 196.707031 172.675781 197.269531 174.054688 197.269531 C 175.4375 197.269531 176.566406 196.707031 176.566406 196.015625 Z M 194.136719 195.847656 C 194.136719 195.25 190.464844 194.761719 185.976562 194.761719 C 181.492188 194.761719 177.820312 195.230469 177.820312 195.808594 C 177.820312 196.382812 181.492188 196.875 185.976562 196.894531 C 190.464844 196.917969 194.136719 196.445312 194.136719 195.847656 Z M 197.898438 196.015625 C 197.898438 195.324219 197.335938 194.761719 196.644531 194.761719 C 195.953125 194.761719 195.390625 195.324219 195.390625 196.015625 C 195.390625 196.707031 195.953125 197.269531 196.644531 197.269531 C 197.335938 197.269531 197.898438 196.707031 197.898438 196.015625 Z M 201.664062 196.015625 C 201.664062 195.324219 201.101562 194.761719 200.410156 194.761719 C 199.71875 194.761719 199.15625 195.324219 199.15625 196.015625 C 199.15625 196.707031 199.71875 197.269531 200.410156 197.269531 C 201.101562 197.269531 201.664062 196.707031 201.664062 196.015625 Z M 206.683594 196.015625 C 206.683594 195.324219 206.121094 194.761719 205.429688 194.761719 C 204.738281 194.761719 204.175781 195.324219 204.175781 196.015625 C 204.175781 196.707031 204.738281 197.269531 205.429688 197.269531 C 206.121094 197.269531 206.683594 196.707031 206.683594 196.015625 Z M 178.136719 192.585938 C 172.625 192.265625 170.292969 191.628906 170.292969 190.441406 C 170.292969 188.597656 167.222656 186.953125 166.023438 188.15625 C 164.59375 189.582031 165.28125 190.996094 167.46875 191.121094 C 168.890625 191.203125 168.5625 191.574219 166.527344 192.179688 C 164.621094 192.746094 167.828125 193.097656 174.683594 193.078125 C 182.875 193.050781 183.824219 192.917969 178.136719 192.585938 Z M 190.03125 192.746094 C 189.613281 192.332031 188.53125 192.285156 187.625 192.648438 C 186.625 193.050781 186.921875 193.347656 188.382812 193.40625 C 189.707031 193.460938 190.449219 193.164062 190.03125 192.746094 Z M 198.214844 192.675781 C 197.351562 192.328125 195.9375 192.328125 195.078125 192.675781 C 194.214844 193.023438 194.917969 193.308594 196.644531 193.308594 C 198.371094 193.308594 199.078125 193.023438 198.214844 192.675781 Z M 153.996094 189.425781 C 154.007812 188.457031 154.367188 188.335938 154.9375 189.113281 C 156.535156 191.285156 163.621094 191.328125 164.449219 189.171875 C 165.066406 187.566406 164.007812 187.230469 158.332031 187.230469 C 153.066406 187.230469 151.46875 187.671875 151.46875 189.113281 C 151.46875 190.148438 152.03125 190.996094 152.722656 190.996094 C 153.414062 190.996094 153.988281 190.289062 153.996094 189.425781 Z M 174.054688 189.742188 C 174.054688 189.050781 173.492188 188.488281 172.800781 188.488281 C 172.113281 188.488281 171.546875 189.050781 171.546875 189.742188 C 171.546875 190.429688 172.113281 190.996094 172.800781 190.996094 C 173.492188 190.996094 174.054688 190.429688 174.054688 189.742188 Z M 177.820312 189.742188 C 177.820312 189.050781 177.257812 188.488281 176.566406 188.488281 C 175.875 188.488281 175.3125 189.050781 175.3125 189.742188 C 175.3125 190.429688 175.875 190.996094 176.566406 190.996094 C 177.257812 190.996094 177.820312 190.429688 177.820312 189.742188 Z M 188.585938 188.921875 C 188.121094 187.707031 189.160156 187.230469 192.292969 187.230469 C 194.925781 187.230469 196.652344 186.613281 196.664062 185.664062 C 196.679688 184.453125 196.921875 184.46875 197.714844 185.722656 C 198.539062 187.023438 199.074219 186.960938 200.359375 185.410156 C 202.480469 182.855469 204.175781 182.941406 204.175781 185.601562 C 204.175781 188.277344 206.207031 186.324219 207.042969 182.839844 C 207.628906 180.40625 207.652344 180.40625 207.792969 182.929688 C 207.917969 185.132812 208.789062 185.546875 213.503906 185.621094 C 219.238281 185.710938 222.019531 183.242188 219.273438 180.496094 C 218.382812 179.605469 217.972656 180.160156 217.957031 182.273438 C 217.945312 184.503906 217.640625 184.875 216.847656 183.628906 C 215.640625 181.71875 219.125 174.46875 220.769531 175.484375 C 221.304688 175.8125 221.742188 177.78125 221.742188 179.851562 C 221.742188 184.128906 224.179688 183.632812 224.378906 179.3125 C 224.492188 176.785156 224.574219 176.816406 225.390625 179.703125 L 226.277344 182.839844 L 227.128906 179.703125 C 228.308594 175.367188 228.070312 162.042969 226.761719 158.996094 C 226 157.21875 225.59375 159.050781 225.375 165.269531 L 225.0625 174.054688 L 224.253906 165.269531 C 223.804688 160.4375 223.332031 157.332031 223.199219 158.367188 C 222.984375 160.042969 222.824219 160.042969 221.742188 158.367188 C 220.886719 157.042969 220.507812 158.902344 220.46875 164.644531 C 220.425781 170.804688 220.097656 172.261719 219.132812 170.605469 C 218.355469 169.269531 216.347656 168.40625 214.015625 168.40625 C 210.546875 168.40625 210.253906 168.105469 210.964844 165.269531 C 211.609375 162.699219 211.292969 162.132812 209.21875 162.132812 C 207.824219 162.132812 206.683594 162.636719 206.683594 163.253906 C 206.683594 163.871094 205.726562 164.742188 204.558594 165.191406 C 202.648438 165.921875 202.660156 165.753906 204.679688 163.519531 C 205.917969 162.15625 206.53125 160.390625 206.042969 159.597656 C 205.550781 158.808594 206.910156 159.070312 209.054688 160.179688 C 211.421875 161.402344 212.957031 163.171875 212.957031 164.675781 C 212.957031 167.34375 216.617188 168.191406 216.882812 165.585938 C 216.972656 164.722656 217.179688 162.671875 217.347656 161.027344 C 217.59375 158.609375 216.726562 157.675781 212.828125 156.144531 C 207.632812 154.105469 207.253906 152.226562 212.144531 152.761719 C 214.570312 153.03125 215.15625 152.515625 215.15625 150.109375 C 215.15625 146.339844 212.320312 143.652344 211.261719 146.414062 C 210.859375 147.46875 211.074219 148.328125 211.742188 148.328125 C 212.410156 148.328125 212.957031 149.246094 212.957031 150.367188 C 212.957031 151.765625 212.46875 152.046875 211.390625 151.257812 C 209.121094 149.609375 202.917969 149.179688 202.917969 150.675781 C 202.917969 152.683594 205.148438 153.53125 205.851562 151.789062 C 206.199219 150.921875 206.484375 151.90625 206.484375 153.976562 C 206.484375 156.046875 206.191406 157.011719 205.835938 156.121094 C 205.339844 154.882812 204.773438 154.84375 203.441406 155.949219 C 202.070312 157.085938 201.5 156.890625 200.796875 155.058594 C 199.996094 152.976562 199.800781 153.066406 199.023438 155.859375 C 198.195312 158.835938 198.144531 158.851562 198.023438 156.171875 C 197.929688 154.03125 197.140625 153.347656 194.761719 153.347656 C 193.035156 153.347656 191.625 153.53125 191.625 153.753906 C 191.625 155.390625 196.453125 163.574219 197.371094 163.492188 C 198.007812 163.433594 198.597656 163.953125 198.683594 164.644531 C 198.769531 165.332031 198.96875 166.179688 199.125 166.527344 C 199.277344 166.871094 199.460938 168.707031 199.527344 170.605469 C 199.59375 172.503906 200.949219 175.460938 202.539062 177.179688 C 205.640625 180.53125 206.1875 182.210938 204.175781 182.210938 C 203.484375 182.210938 202.917969 181.570312 202.917969 180.78125 C 202.917969 179.996094 202 178.679688 200.875 177.855469 C 199.75 177.03125 198.417969 174.148438 197.914062 171.441406 L 197 166.527344 L 196.011719 172 C 195.335938 175.738281 193.554688 179.015625 190.390625 182.34375 C 187.839844 185.023438 185.96875 187.433594 186.234375 187.695312 C 186.496094 187.960938 185.8125 188.523438 184.710938 188.945312 C 183.609375 189.367188 183.023438 189.207031 183.40625 188.589844 C 183.785156 187.972656 182.96875 187.761719 181.585938 188.121094 C 177.363281 189.226562 178.789062 190.609375 184.15625 190.609375 C 187.898438 190.609375 189.066406 190.164062 188.585938 188.921875 Z M 213.464844 179.894531 C 214.054688 178.945312 213.257812 178.449219 211.148438 178.449219 C 207.773438 178.449219 207.085938 176.582031 209.296875 173.425781 C 210.328125 171.953125 210.441406 172.160156 209.820312 174.367188 C 209.144531 176.769531 209.507812 177.191406 212.246094 177.191406 C 215.597656 177.191406 216.527344 178.898438 214.019531 180.449219 C 213.121094 181.003906 212.910156 180.792969 213.464844 179.894531 Z M 201.035156 159.625 C 201.464844 158.933594 202.0625 158.367188 202.367188 158.367188 C 202.671875 158.367188 202.917969 158.933594 202.917969 159.625 C 202.917969 160.3125 202.320312 160.878906 201.589844 160.878906 C 200.859375 160.878906 200.609375 160.3125 201.035156 159.625 Z M 195.390625 189.472656 C 195.390625 188.929688 194.261719 188.484375 192.878906 188.484375 C 191.5 188.484375 190.371094 189.015625 190.371094 189.664062 C 190.371094 190.308594 191.5 190.753906 192.878906 190.652344 C 194.261719 190.546875 195.390625 190.015625 195.390625 189.472656 Z M 201.664062 189.742188 C 201.664062 189.050781 201.097656 188.484375 200.410156 188.484375 C 199.71875 188.484375 199.15625 189.050781 199.15625 189.742188 C 199.15625 190.429688 199.71875 190.996094 200.410156 190.996094 C 201.097656 190.996094 201.664062 190.429688 201.664062 189.742188 Z M 214.082031 189.035156 C 214.382812 188.734375 212.527344 188.484375 209.957031 188.484375 C 207.382812 188.484375 205.605469 189.011719 206.003906 189.652344 C 206.675781 190.742188 212.847656 190.269531 214.082031 189.035156 Z M 143.054688 186.347656 C 145.265625 186.347656 146.085938 186.585938 144.878906 186.878906 C 141.871094 187.613281 142.101562 189.742188 145.191406 189.742188 C 146.574219 189.742188 147.703125 188.960938 147.703125 188.011719 C 147.703125 187.0625 148.644531 185.507812 149.789062 184.5625 C 151.679688 183.003906 151.738281 183.101562 150.417969 185.578125 C 148.292969 189.570312 148.632812 190.765625 150.953125 187.453125 C 152.960938 184.582031 152.488281 180.175781 150.316406 181.519531 C 149.671875 181.917969 147.832031 181.742188 146.226562 181.132812 C 135.367188 177 132.089844 176.863281 127.871094 180.355469 C 127.660156 180.53125 128.648438 182.574219 130.0625 184.894531 C 131.476562 187.214844 132.644531 188.265625 132.660156 187.230469 C 132.679688 185.558594 132.816406 185.558594 133.898438 187.230469 C 134.710938 188.484375 135.121094 188.589844 135.132812 187.542969 C 135.144531 186.683594 135.71875 185.976562 136.410156 185.976562 C 137.097656 185.976562 137.597656 186.398438 137.515625 186.917969 C 137.183594 189.023438 137.992188 190.222656 138.492188 188.363281 C 138.84375 187.054688 140.429688 186.351562 143.050781 186.347656 Z M 129.011719 187.402344 C 129.71875 188.515625 130.101562 188.597656 130.113281 187.632812 C 130.125 186.820312 129.347656 185.371094 128.386719 184.410156 C 127.425781 183.449219 126.363281 181.570312 126.023438 180.242188 C 125.476562 178.089844 125.390625 178.128906 125.261719 180.570312 C 125.179688 182.082031 125.65625 183.652344 126.316406 184.058594 C 126.972656 184.46875 127.347656 185.488281 127.148438 186.328125 C 126.945312 187.171875 127.039062 187.371094 127.355469 186.773438 C 127.667969 186.179688 128.414062 186.460938 129.011719 187.402344 Z M 185.476562 184.382812 C 197.488281 176.359375 196.429688 157.703125 183.617188 151.621094 C 170.878906 145.578125 156.480469 154.421875 156.492188 168.28125 C 156.503906 183.3125 173.199219 192.585938 185.476562 184.382812 Z M 166.828125 183.472656 C 158.035156 178.113281 155.265625 167.464844 160.589844 159.496094 C 164.445312 153.726562 170.851562 150.546875 177.085938 151.308594 C 194.332031 153.417969 198.253906 175.875 182.75 183.777344 C 177.117188 186.648438 171.875 186.550781 166.828125 183.472656 Z M 180.824219 183.515625 C 190.882812 179.691406 194.253906 166.785156 187.429688 158.226562 C 183.59375 153.410156 175.214844 151.25 169.1875 153.515625 C 161.613281 156.363281 157.484375 165.667969 160.175781 173.820312 C 163.019531 182.445312 172.25 186.777344 180.824219 183.515625 Z M 172.015625 170.332031 C 171.625 169.320312 171.601562 167.765625 171.957031 166.878906 C 172.3125 165.996094 172.648438 166.539062 172.703125 168.09375 C 172.757812 169.667969 173.597656 170.917969 174.609375 170.917969 C 177.589844 170.917969 178.367188 168.144531 175.890625 166.335938 C 174.617188 165.402344 174.179688 164.640625 174.917969 164.640625 C 175.652344 164.640625 176.960938 165.488281 177.820312 166.523438 C 179.066406 168.027344 179.066406 168.789062 177.820312 170.289062 C 175.828125 172.6875 172.929688 172.710938 172.015625 170.332031 Z M 174.054688 168.40625 C 174.054688 167.71875 174.621094 167.152344 175.308594 167.152344 C 176 167.152344 176.566406 167.71875 176.566406 168.40625 C 176.566406 169.097656 176 169.664062 175.308594 169.664062 C 174.621094 169.664062 174.054688 169.097656 174.054688 168.40625 Z M 119.171875 156.949219 C 118.644531 156.421875 118.132812 160.339844 118.03125 165.652344 L 117.855469 175.308594 L 118.992188 166.605469 C 119.621094 161.820312 119.703125 157.476562 119.171875 156.949219 Z M 219.230469 152.09375 C 219.230469 151.402344 218.632812 150.839844 217.902344 150.839844 C 217.171875 150.839844 216.921875 151.402344 217.347656 152.09375 C 217.777344 152.785156 218.375 153.347656 218.679688 153.347656 C 218.984375 153.347656 219.230469 152.785156 219.230469 152.09375 Z M 145.6875 150.105469 C 146.15625 148.882812 145.875 148.308594 144.957031 148.617188 C 143.082031 149.242188 142.050781 152.09375 143.699219 152.09375 C 144.371094 152.09375 145.265625 151.199219 145.6875 150.105469 Z M 149.976562 149.660156 C 150.289062 148.722656 149.820312 148.25 148.878906 148.5625 C 147.972656 148.867188 146.984375 149.855469 146.683594 150.761719 C 146.371094 151.703125 146.839844 152.171875 147.78125 151.859375 C 148.6875 151.554688 149.675781 150.566406 149.976562 149.660156 Z M 192.921875 150.261719 C 191.523438 148.578125 187.191406 148.527344 185.691406 150.175781 C 185.15625 150.761719 185.429688 150.835938 186.292969 150.339844 C 187.15625 149.839844 187.859375 149.964844 187.859375 150.609375 C 187.859375 151.253906 189.28125 151.78125 191.019531 151.78125 C 193.351562 151.78125 193.851562 151.378906 192.921875 150.261719 Z M 202.519531 145.582031 C 202.121094 144.582031 201.824219 144.878906 201.761719 146.34375 C 201.707031 147.664062 202.003906 148.40625 202.421875 147.988281 C 202.839844 147.570312 202.882812 146.488281 202.519531 145.582031 Z M 153.417969 145.925781 C 153.027344 145.292969 153.417969 144.492188 154.285156 144.144531 C 155.652344 143.59375 152.398438 142.808594 150.027344 143.117188 C 149.582031 143.175781 149.488281 142.175781 149.824219 140.898438 C 150.160156 139.621094 149.722656 138.132812 148.855469 137.597656 C 147.742188 136.910156 147.515625 137.242188 148.078125 138.710938 C 148.601562 140.074219 148.238281 140.800781 147.035156 140.800781 C 146.023438 140.800781 145.195312 141.644531 145.195312 142.683594 C 145.195312 143.726562 146.308594 144.5625 147.703125 144.5625 C 149.085938 144.5625 150.214844 145.128906 150.214844 145.820312 C 150.214844 146.507812 151.09375 147.074219 152.167969 147.074219 C 153.246094 147.074219 153.808594 146.558594 153.417969 145.925781 Z M 196.074219 131.539062 C 194.75 121.578125 193.222656 121.503906 192.875 131.386719 C 192.585938 139.65625 192.566406 139.585938 194.898438 138.691406 C 196.550781 138.054688 196.765625 136.757812 196.074219 131.539062 Z M 198.730469 131.703125 C 198.382812 130.839844 198.097656 131.542969 198.097656 133.269531 C 198.097656 134.996094 198.382812 135.703125 198.730469 134.839844 C 199.078125 133.976562 199.078125 132.5625 198.730469 131.703125 Z M 210.917969 95.425781 C 210.660156 94.972656 209.222656 94.925781 207.726562 95.316406 C 205.453125 95.910156 205.15625 95.632812 205.917969 93.628906 C 206.632812 91.757812 206.5 91.5625 205.3125 92.738281 C 204.125 93.917969 204.453125 94.929688 206.808594 97.382812 C 209.464844 100.144531 209.914062 100.265625 210.605469 98.382812 C 211.035156 97.210938 211.175781 95.878906 210.917969 95.425781 Z M 175.3125 97.429688 C 175.3125 96.355469 174.746094 95.824219 174.054688 96.25 C 173.367188 96.675781 172.800781 97.558594 172.800781 98.207031 C 172.800781 98.855469 173.367188 99.386719 174.054688 99.386719 C 174.746094 99.386719 175.3125 98.507812 175.3125 97.429688 Z M 179.449219 95.664062 C 178.632812 92.53125 175.3125 89.527344 175.3125 91.917969 C 175.3125 93.289062 178.796875 98.132812 179.78125 98.132812 C 179.953125 98.132812 179.804688 97.023438 179.449219 95.664062 Z M 140.191406 93.125 C 139.03125 92.40625 139.054688 91.605469 140.296875 89.617188 C 141.609375 87.515625 141.601562 86.675781 140.257812 85.058594 C 139.351562 83.96875 138.027344 83.074219 137.316406 83.074219 C 136.601562 83.074219 136.957031 84.109375 138.097656 85.371094 C 140.367188 87.878906 139.71875 89.578125 136.898438 88.496094 C 135.597656 87.996094 135.363281 88.4375 136.019531 90.148438 C 137.265625 93.417969 139.347656 95.480469 140.621094 94.707031 C 141.210938 94.347656 141.019531 93.636719 140.191406 93.125 Z M 166.527344 90.363281 C 166.527344 88.761719 164.292969 89.183594 163.59375 90.917969 C 163.203125 91.882812 162.921875 91.671875 162.859375 90.363281 C 162.804688 89.195312 163.324219 87.894531 164.015625 87.464844 C 164.707031 87.039062 165.269531 86.039062 165.269531 85.242188 C 165.269531 84.378906 164.457031 84.605469 163.257812 85.804688 C 161.777344 87.285156 161.484375 88.910156 162.15625 91.960938 C 163.011719 95.847656 163.175781 95.960938 164.796875 93.742188 C 165.746094 92.441406 166.527344 90.921875 166.527344 90.363281 Z M 182.839844 91.785156 C 182.839844 91.136719 182.273438 90.605469 181.585938 90.605469 C 180.894531 90.605469 180.328125 91.484375 180.328125 92.558594 C 180.328125 93.636719 180.894531 94.167969 181.585938 93.742188 C 182.273438 93.3125 182.839844 92.433594 182.839844 91.785156 Z M 158.976562 88.960938 C 158.988281 88.402344 158.433594 88.292969 157.742188 88.722656 C 157.050781 89.148438 156.496094 90.453125 156.507812 91.617188 C 156.523438 93.449219 156.695312 93.480469 157.742188 91.859375 C 158.410156 90.824219 158.96875 89.519531 158.976562 88.960938 Z M 187.128906 88.886719 C 185.617188 83.867188 183.960938 83.511719 184.28125 88.277344 C 184.5 91.488281 185.085938 92.652344 186.261719 92.203125 C 187.320312 91.796875 187.636719 90.578125 187.128906 88.886719 Z M 214.25 89.347656 C 215.738281 86.480469 215.699219 86.359375 213.792969 87.933594 C 212.644531 88.882812 211.703125 90.527344 211.703125 91.59375 C 211.703125 93.871094 212.0625 93.554688 214.25 89.347656 Z M 145.195312 89.347656 C 145.195312 87.96875 144.628906 86.839844 143.9375 86.839844 C 143.25 86.839844 142.683594 87.96875 142.683594 89.347656 C 142.683594 90.730469 143.25 91.859375 143.9375 91.859375 C 144.628906 91.859375 145.195312 90.730469 145.195312 89.347656 Z M 155.234375 89.273438 C 155.234375 88.625 154.667969 88.09375 153.976562 88.09375 C 153.289062 88.09375 152.722656 88.972656 152.722656 90.050781 C 152.722656 91.125 153.289062 91.65625 153.976562 91.230469 C 154.667969 90.804688 155.234375 89.925781 155.234375 89.273438 Z M 174.996094 85.890625 C 175.859375 85.609375 176.566406 86.269531 176.566406 87.363281 C 176.566406 88.453125 177.414062 89.347656 178.449219 89.347656 C 179.484375 89.347656 180.332031 88.804688 180.332031 88.136719 C 180.332031 86.726562 176.230469 84.328125 173.8125 84.328125 C 171.671875 84.328125 168.703125 89.046875 169.765625 90.765625 C 170.238281 91.527344 171.175781 90.890625 172.003906 89.246094 C 172.789062 87.683594 174.136719 86.175781 174.996094 85.890625 Z M 194.992188 89.113281 C 194.589844 88.113281 194.292969 88.410156 194.234375 89.871094 C 194.179688 91.195312 194.476562 91.9375 194.894531 91.519531 C 195.308594 91.101562 195.355469 90.019531 194.992188 89.113281 Z M 200.410156 88.851562 C 200.410156 88.035156 201.539062 85.15625 202.917969 82.445312 C 204.300781 79.738281 205.429688 76.761719 205.429688 75.832031 C 205.429688 74.902344 205.9375 74.457031 206.5625 74.839844 C 207.777344 75.59375 210.894531 68.042969 209.8125 66.960938 C 208.789062 65.9375 205.574219 70.984375 206.351562 72.394531 C 206.738281 73.089844 206.292969 72.957031 205.363281 72.09375 C 202.75 69.667969 199.09375 70.089844 199.941406 72.722656 C 200.523438 74.535156 200.417969 74.59375 199.339844 73.070312 C 198.625 72.054688 197.664062 71.597656 197.210938 72.050781 C 196.757812 72.5 197.292969 74.164062 198.398438 75.742188 C 199.503906 77.320312 200.410156 77.890625 200.410156 77.003906 C 200.410156 76.121094 200.898438 75.699219 201.496094 76.066406 C 202.855469 76.90625 201.769531 83.074219 200.261719 83.074219 C 199.652344 83.074219 199.15625 84.171875 199.15625 85.507812 C 199.15625 86.847656 198.589844 88.292969 197.898438 88.722656 C 195.921875 89.941406 196.4375 91.859375 198.527344 91.058594 C 199.5625 90.660156 200.410156 89.667969 200.410156 88.851562 Z M 205.34375 86.210938 C 205.410156 86.902344 206.214844 86.054688 207.128906 84.328125 C 208.875 81.027344 208.585938 78.761719 206.578125 80.003906 C 205.203125 80.851562 201.636719 88.980469 201.722656 91.070312 C 201.753906 91.847656 202.554688 90.792969 203.5 88.722656 C 204.449219 86.652344 205.28125 85.519531 205.347656 86.210938 Z M 133.183594 87.421875 C 135.15625 84.414062 135.128906 84.066406 132.703125 80.980469 C 130.910156 78.699219 130.136719 78.3125 130.136719 79.695312 C 130.136719 80.78125 130.699219 82.019531 131.390625 82.445312 C 133.617188 83.824219 132.722656 85.777344 130.226562 84.984375 C 128.039062 84.289062 127.949219 84.519531 129.285156 87.402344 C 130.097656 89.152344 130.839844 90.589844 130.933594 90.59375 C 131.023438 90.597656 132.039062 89.171875 133.183594 87.421875 Z M 192.382812 87.179688 C 191.109375 85.902344 190.054688 87.824219 191.101562 89.515625 C 191.894531 90.796875 192.1875 90.796875 192.613281 89.523438 C 192.902344 88.648438 192.800781 87.597656 192.382812 87.179688 Z M 211.660156 83.863281 C 211.683594 83.257812 210.855469 83.46875 209.820312 84.328125 C 208.785156 85.1875 207.957031 87.09375 207.984375 88.5625 C 208.023438 91.074219 208.132812 91.046875 209.820312 88.09375 C 210.808594 86.367188 211.632812 84.464844 211.660156 83.863281 Z M 154.957031 84.527344 C 155.554688 82.738281 153.171875 82.589844 152.082031 84.347656 C 151.648438 85.050781 150.769531 85.300781 150.125 84.902344 C 149.484375 84.503906 148.957031 84.777344 148.957031 85.503906 C 148.957031 87.257812 154.339844 86.386719 154.957031 84.527344 Z M 158.625 81.195312 C 158.554688 78.777344 158.109375 76.800781 157.628906 76.800781 C 156.207031 76.800781 154.984375 81.109375 156.28125 81.542969 C 156.9375 81.761719 157.164062 83.128906 156.785156 84.585938 C 156.34375 86.265625 156.578125 86.929688 157.421875 86.410156 C 158.152344 85.957031 158.695312 83.613281 158.625 81.195312 Z M 197.898438 84.957031 C 197.898438 83.921875 197.351562 83.074219 196.683594 83.074219 C 196.015625 83.074219 195.792969 83.921875 196.191406 84.957031 C 196.589844 85.992188 197.136719 86.839844 197.40625 86.839844 C 197.675781 86.839844 197.898438 85.992188 197.898438 84.957031 Z M 146.449219 84.402344 C 146.449219 83.753906 145.882812 82.875 145.195312 82.445312 C 144.503906 82.019531 143.9375 82.550781 143.9375 83.628906 C 143.9375 84.703125 144.503906 85.582031 145.195312 85.582031 C 145.882812 85.582031 146.449219 85.050781 146.449219 84.402344 Z M 172.34375 82.382812 C 175.691406 78.769531 175.996094 77.914062 173.773438 78.367188 C 172.214844 78.6875 167.78125 83.476562 167.78125 84.839844 C 167.78125 86.386719 169.476562 85.472656 172.34375 82.382812 Z M 188.972656 84.015625 C 188.832031 83.152344 189.164062 81.429688 189.703125 80.1875 C 190.390625 78.609375 189.828125 77.011719 187.851562 74.910156 C 186.292969 73.25 184.667969 71.933594 184.242188 71.984375 C 181.140625 72.355469 180.296875 71.710938 181.792969 70.109375 C 183.078125 68.730469 183.828125 68.949219 186.0625 71.363281 C 188.972656 74.503906 190.371094 75.046875 190.371094 73.035156 C 190.371094 71.335938 184.980469 66.046875 183.6875 66.476562 C 183.117188 66.667969 183.011719 65.691406 183.449219 64.304688 C 184.332031 61.53125 180.730469 55.570312 178.136719 55.503906 C 175.78125 55.445312 176.242188 57.726562 179.074219 60.148438 C 180.457031 61.332031 181.585938 63.050781 181.585938 63.972656 C 181.585938 64.890625 180.191406 64.0625 178.488281 62.125 C 176.785156 60.1875 175.371094 59.308594 175.351562 60.171875 C 175.328125 61.035156 174.640625 61.742188 173.824219 61.742188 C 171.457031 61.742188 166.527344 66.976562 166.527344 69.488281 C 166.527344 70.75 167.089844 71.78125 167.78125 71.78125 C 168.472656 71.78125 169.035156 70.996094 169.035156 70.042969 C 169.035156 69.085938 170.40625 67.40625 172.078125 66.3125 C 174.898438 64.460938 175.328125 64.496094 178.039062 66.753906 C 179.644531 68.089844 180.367188 69.207031 179.640625 69.226562 C 178.914062 69.25 177.644531 68.59375 176.816406 67.765625 C 175.644531 66.59375 175.3125 66.871094 175.3125 69.019531 C 175.3125 70.664062 176.089844 71.78125 177.234375 71.78125 C 178.292969 71.78125 179.609375 73.007812 180.164062 74.503906 C 180.832031 76.308594 181.480469 76.734375 182.082031 75.757812 C 182.582031 74.949219 183.554688 74.289062 184.242188 74.289062 C 184.933594 74.289062 185.148438 74.855469 184.722656 75.542969 C 184.296875 76.234375 184.484375 76.800781 185.140625 76.800781 C 185.800781 76.800781 186.691406 77.726562 187.128906 78.859375 C 187.789062 80.582031 187.605469 80.660156 186.007812 79.332031 C 183.195312 77 183.441406 80.316406 186.292969 83.207031 C 188.96875 85.921875 189.296875 86.019531 188.972656 84.015625 Z M 194.136719 83.703125 C 194.136719 82.667969 193.21875 81.820312 192.097656 81.820312 C 190.429688 81.820312 190.34375 82.160156 191.625 83.703125 C 192.484375 84.738281 193.402344 85.582031 193.660156 85.582031 C 193.921875 85.582031 194.136719 84.738281 194.136719 83.703125 Z M 218.660156 84.414062 C 218.261719 83.773438 218.511719 82.894531 219.210938 82.460938 C 219.914062 82.027344 220.488281 80.789062 220.488281 79.710938 C 220.488281 78.109375 220.140625 78.035156 218.605469 79.308594 C 216.453125 81.09375 216.058594 85.585938 218.050781 85.585938 C 218.785156 85.585938 219.054688 85.058594 218.660156 84.414062 Z M 165.273438 80.277344 C 165.273438 78.171875 164.957031 78.007812 163.390625 79.308594 C 162.355469 80.167969 161.507812 81.632812 161.507812 82.5625 C 161.507812 83.546875 162.289062 83.949219 163.390625 83.527344 C 164.425781 83.128906 165.273438 81.667969 165.273438 80.277344 Z M 182.839844 80.3125 C 182.839844 78.992188 172.808594 69.269531 171.445312 69.269531 C 170.8125 69.269531 170.292969 70.117188 170.292969 71.152344 C 170.292969 72.1875 169.726562 73.035156 169.035156 73.035156 C 168.347656 73.035156 167.78125 74.445312 167.78125 76.171875 C 167.78125 77.898438 168.347656 79.308594 169.035156 79.308594 C 169.726562 79.308594 170.292969 78.574219 170.292969 77.679688 C 170.292969 73.773438 172.957031 73.429688 176.632812 76.859375 C 180.414062 80.394531 181.878906 83.410156 178.417969 80.539062 C 175.964844 78.503906 174.46875 79.917969 176.496094 82.359375 C 177.730469 83.847656 178.511719 83.921875 180.4375 82.714844 C 181.757812 81.890625 182.839844 80.808594 182.839844 80.3125 Z M 145.195312 78.375 C 145.195312 76.84375 144.84375 76.785156 143.3125 78.054688 C 142.277344 78.914062 141.429688 79.171875 141.429688 78.625 C 141.429688 78.082031 141.132812 77.933594 140.773438 78.292969 C 140.410156 78.65625 140.476562 79.890625 140.917969 81.042969 C 141.542969 82.667969 142.109375 82.816406 143.457031 81.699219 C 144.414062 80.90625 145.195312 79.410156 145.195312 78.375 Z M 216.59375 76.800781 C 216.632812 75.347656 216.242188 75.445312 214.886719 77.234375 C 213.921875 78.511719 213.472656 80.445312 213.890625 81.535156 C 214.539062 83.222656 214.792969 83.15625 215.597656 81.101562 C 216.121094 79.769531 216.570312 77.835938 216.59375 76.800781 Z M 127.261719 79.308594 C 126.898438 77.929688 126.976562 76.796875 127.429688 76.789062 C 127.882812 76.785156 128.949219 75.277344 129.800781 73.445312 C 130.941406 70.992188 130.980469 69.664062 129.960938 68.433594 C 128.898438 67.152344 129.066406 66.761719 130.6875 66.761719 C 131.96875 66.761719 132.695312 65.894531 132.53125 64.5625 C 132.382812 63.355469 132.691406 61.371094 133.21875 60.15625 C 133.777344 58.875 133.546875 57.183594 132.675781 56.132812 C 131.851562 55.136719 131.511719 53.769531 131.929688 53.097656 C 132.34375 52.425781 132.046875 51.480469 131.269531 51 C 128.820312 49.488281 127.589844 53.34375 129.558594 56.351562 C 131.917969 59.949219 131.894531 61.214844 129.507812 59.230469 C 127.96875 57.957031 127.625 58.027344 127.625 59.628906 C 127.625 60.710938 128.191406 61.941406 128.878906 62.367188 C 129.570312 62.796875 130.132812 63.746094 130.132812 64.476562 C 130.132812 65.3125 129.414062 65.214844 128.222656 64.226562 C 125.300781 61.800781 124.511719 63.769531 126.925781 67.457031 C 128.113281 69.265625 128.722656 71.101562 128.285156 71.539062 C 127.847656 71.976562 126.984375 71.519531 126.371094 70.523438 C 125.753906 69.53125 124.847656 69.121094 124.355469 69.613281 C 123.859375 70.105469 124.480469 71.644531 125.734375 73.027344 C 127.785156 75.292969 127.496094 76.121094 124.800781 75.695312 C 123.402344 75.472656 123.660156 77.785156 125.136719 78.695312 C 125.835938 79.128906 126.085938 80.007812 125.6875 80.652344 C 125.292969 81.292969 125.628906 81.820312 126.441406 81.820312 C 127.300781 81.820312 127.644531 80.769531 127.261719 79.308594 Z M 137.300781 78.054688 C 136.941406 76.675781 137.179688 75.21875 137.832031 74.8125 C 138.484375 74.410156 138.675781 72.996094 138.257812 71.675781 C 137.800781 70.234375 138.085938 69.269531 138.96875 69.269531 C 139.917969 69.269531 140.164062 68.148438 139.660156 66.132812 C 139.203125 64.324219 139.414062 62.996094 140.148438 62.996094 C 142.007812 62.996094 141.722656 57.992188 139.859375 57.898438 C 138.996094 57.851562 139.621094 57.285156 141.246094 56.632812 C 143.136719 55.875 143.941406 54.777344 143.480469 53.574219 C 143.085938 52.546875 143.269531 51.703125 143.890625 51.703125 C 144.511719 51.703125 145.199219 50.550781 145.417969 49.140625 C 145.863281 46.324219 147.976562 45.617188 148.777344 48.015625 C 149.097656 48.976562 148.691406 49.175781 147.683594 48.550781 C 146.460938 47.796875 146.285156 48.425781 146.929688 51.199219 C 147.550781 53.867188 147.4375 54.335938 146.503906 52.957031 C 145.519531 51.5 145.226562 52.015625 145.210938 55.226562 C 145.203125 57.671875 144.675781 59.058594 143.9375 58.605469 C 143.25 58.175781 142.683594 58.675781 142.683594 59.710938 C 142.683594 60.746094 143.320312 61.988281 144.101562 62.46875 C 145.066406 63.066406 144.859375 63.710938 143.445312 64.5 C 142.308594 65.136719 141.777344 66.308594 142.265625 67.097656 C 142.753906 67.890625 143.273438 69.972656 143.417969 71.726562 C 143.566406 73.480469 143.414062 74.210938 143.078125 73.347656 C 142.078125 70.753906 140.359375 71.585938 141.070312 74.316406 C 142.238281 78.78125 144.789062 74.796875 145.5625 67.292969 C 145.960938 63.453125 146.957031 59.503906 147.773438 58.515625 C 148.59375 57.527344 148.941406 56.722656 148.546875 56.722656 C 148.152344 56.722656 148.648438 54.761719 149.648438 52.371094 C 152.429688 45.71875 152.007812 43.089844 148.015625 42.164062 C 146.117188 41.722656 143.25 40.539062 141.636719 39.535156 C 139.003906 37.886719 138.539062 37.933594 137.011719 39.996094 C 135.371094 42.207031 135.242188 42.195312 133.453125 39.78125 C 132.429688 38.402344 131.167969 37.699219 130.652344 38.21875 C 130.132812 38.738281 131.03125 40.570312 132.648438 42.292969 C 135.535156 45.367188 134.597656 46.878906 131.640625 43.921875 C 130.46875 42.75 130.132812 42.996094 130.132812 45.023438 C 130.132812 46.457031 130.996094 48.34375 132.046875 49.214844 C 133.148438 50.128906 133.644531 51.785156 133.214844 53.132812 C 132.316406 55.960938 134.589844 56.25 136.128906 53.503906 C 137.105469 51.753906 137.417969 51.78125 139.011719 53.746094 C 139.996094 54.957031 140.210938 55.59375 139.488281 55.164062 C 138.761719 54.730469 137.375 54.871094 136.398438 55.472656 C 134.921875 56.382812 135.039062 57.035156 137.085938 59.367188 C 139.203125 61.777344 139.246094 62.058594 137.390625 61.378906 C 134.519531 60.335938 132.980469 63.007812 135.605469 64.476562 C 138.632812 66.171875 138.148438 68.335938 134.964844 67.328125 C 132.96875 66.695312 132.445312 66.917969 132.960938 68.183594 C 135.453125 74.308594 135.453125 74.324219 133.410156 73.542969 C 130.738281 72.515625 130.832031 74.9375 133.585938 77.949219 C 136.484375 81.125 138.113281 81.171875 137.300781 78.054688 Z M 139.554688 49.207031 C 139.117188 48.496094 139.621094 48.285156 140.734375 48.710938 C 142.910156 49.546875 143.308594 50.445312 141.503906 50.445312 C 140.851562 50.445312 139.976562 49.886719 139.554688 49.207031 Z M 136.101562 46.054688 C 136.433594 44.328125 136.917969 42.917969 137.183594 42.917969 C 137.449219 42.917969 137.664062 44.328125 137.664062 46.054688 C 137.664062 47.78125 137.175781 49.191406 136.582031 49.191406 C 135.988281 49.191406 135.773438 47.78125 136.101562 46.054688 Z M 140.710938 44.824219 C 138.585938 43.21875 138.550781 42.992188 140.414062 42.957031 C 141.582031 42.933594 142.90625 43.519531 143.363281 44.253906 C 144.730469 46.46875 143.289062 46.777344 140.710938 44.824219 Z M 148.957031 79.308594 C 148.957031 78.621094 148.394531 78.054688 147.703125 78.054688 C 147.011719 78.054688 146.449219 78.621094 146.449219 79.308594 C 146.449219 80 147.011719 80.5625 147.703125 80.5625 C 148.394531 80.5625 148.957031 80 148.957031 79.308594 Z M 153.691406 78.289062 C 154.441406 76.03125 151.847656 76.507812 150.972656 78.785156 C 150.503906 80.007812 150.785156 80.582031 151.703125 80.277344 C 152.523438 80.003906 153.417969 79.109375 153.691406 78.289062 Z M 193.894531 76.878906 C 193.058594 75.546875 191.898438 74.75 191.3125 75.109375 C 190.117188 75.847656 192.574219 79.308594 194.296875 79.308594 C 194.910156 79.308594 194.726562 78.214844 193.894531 76.878906 Z M 164.015625 74.917969 C 165.972656 71.261719 164.921875 69.464844 162.164062 71.753906 C 160.152344 73.425781 159.511719 78.054688 161.292969 78.054688 C 161.867188 78.054688 163.09375 76.644531 164.015625 74.917969 Z M 214.210938 72.214844 C 214.210938 69.71875 211.984375 70.164062 210.492188 72.953125 C 208.324219 77.007812 208.945312 78.667969 211.703125 76.171875 C 213.082031 74.921875 214.210938 73.140625 214.210938 72.214844 Z M 152.722656 72.257812 C 152.722656 71.222656 152.15625 70.726562 151.46875 71.152344 C 150.777344 71.578125 150.210938 72.773438 150.210938 73.808594 C 150.210938 74.847656 150.777344 75.34375 151.46875 74.917969 C 152.15625 74.492188 152.722656 73.292969 152.722656 72.257812 Z M 222.996094 70.84375 C 222.996094 69.234375 222.695312 69.214844 220.910156 70.683594 C 219.023438 72.242188 218.960938 72.144531 220.28125 69.667969 C 222.074219 66.300781 222.109375 65.503906 220.460938 65.503906 C 219.753906 65.503906 218.542969 66.902344 217.765625 68.605469 C 216.683594 70.980469 216.730469 72.160156 217.960938 73.640625 C 219.804688 75.867188 222.996094 74.09375 222.996094 70.84375 Z M 158.996094 69.589844 C 158.996094 68.058594 158.644531 68 157.113281 69.269531 C 156.078125 70.128906 155.234375 71.679688 155.234375 72.714844 C 155.234375 74.246094 155.582031 74.304688 157.113281 73.035156 C 158.148438 72.175781 158.996094 70.625 158.996094 69.589844 Z M 195.390625 71.152344 C 195.390625 70.117188 194.542969 69.269531 193.507812 69.269531 C 190.242188 69.269531 191.300781 71.742188 195.074219 72.9375 C 195.25 72.992188 195.390625 72.1875 195.390625 71.152344 Z M 198.65625 67.101562 C 197.382812 65.824219 196.328125 67.746094 197.375 69.4375 C 198.167969 70.71875 198.460938 70.71875 198.886719 69.445312 C 199.175781 68.570312 199.074219 67.515625 198.65625 67.101562 Z M 206.59375 64.492188 C 206.644531 63.585938 206.117188 63.195312 205.429688 63.625 C 204.738281 64.050781 204.214844 65.917969 204.261719 67.777344 C 204.339844 70.789062 204.464844 70.882812 205.429688 68.644531 C 206.023438 67.261719 206.546875 65.394531 206.59375 64.492188 Z M 152.722656 65.984375 C 152.722656 64.949219 152.15625 64.453125 151.46875 64.878906 C 150.777344 65.304688 150.210938 66.5 150.210938 67.535156 C 150.210938 68.570312 150.777344 69.070312 151.46875 68.644531 C 152.15625 68.214844 152.722656 67.019531 152.722656 65.984375 Z M 163.933594 63.6875 C 162.214844 61.9375 159.746094 64.890625 160.746094 67.496094 C 161.515625 69.496094 161.707031 69.476562 163.339844 67.265625 C 164.433594 65.785156 164.65625 64.425781 163.933594 63.6875 Z M 191.046875 67.9375 C 191.894531 66.558594 188.292969 61.742188 186.410156 61.742188 C 185.828125 61.742188 185.347656 62.585938 185.347656 63.625 C 185.347656 64.660156 185.914062 65.503906 186.605469 65.503906 C 187.292969 65.503906 187.859375 66.351562 187.859375 67.386719 C 187.859375 69.558594 189.832031 69.898438 191.046875 67.9375 Z M 202.917969 66.507812 C 202.917969 64.480469 202.546875 64.121094 201.523438 65.144531 C 200.753906 65.914062 200.503906 67.15625 200.96875 67.90625 C 202.265625 70.007812 202.917969 69.539062 202.917969 66.507812 Z M 218.523438 62.867188 C 218.023438 62.058594 216.839844 62.382812 215.34375 63.734375 C 213.222656 65.652344 212.957031 65.671875 212.957031 63.890625 C 212.957031 62.789062 213.523438 61.539062 214.210938 61.113281 C 214.902344 60.6875 215.46875 59.742188 215.46875 59.011719 C 215.46875 58.277344 214.070312 58.601562 212.328125 59.742188 C 210.59375 60.882812 209.191406 61.207031 209.191406 60.476562 C 209.191406 59.746094 210.039062 58.828125 211.074219 58.429688 C 212.109375 58.03125 212.957031 56.933594 212.957031 55.992188 C 212.957031 54.65625 212.1875 54.546875 209.507812 55.503906 C 206.363281 56.625 206.261719 56.574219 208.375 54.929688 C 211.085938 52.820312 210.097656 50.246094 206.957031 51.230469 C 204.957031 51.855469 204.960938 51.773438 206.996094 50.097656 C 209.285156 48.210938 209.964844 45.425781 208.132812 45.425781 C 207.546875 45.425781 206.058594 46.546875 204.820312 47.914062 C 203.222656 49.679688 202.945312 50.859375 203.855469 51.992188 C 204.558594 52.867188 205.507812 55.316406 205.960938 57.4375 C 206.414062 59.558594 208.4375 63.105469 210.460938 65.316406 L 214.136719 69.34375 L 216.730469 66.75 C 218.15625 65.324219 218.964844 63.578125 218.523438 62.867188 Z M 194.101562 63.71875 C 192.4375 62.054688 191.40625 63.472656 192.394531 66.058594 C 193.050781 67.761719 193.449219 67.871094 194.257812 66.5625 C 194.820312 65.648438 194.753906 64.367188 194.101562 63.71875 Z M 159.386719 60.375 C 158.417969 59.40625 157.46875 59.824219 156.054688 61.839844 C 153.367188 65.679688 154.734375 67.320312 158.050781 64.230469 C 159.972656 62.441406 160.355469 61.339844 159.386719 60.375 Z M 198.167969 61.511719 C 196.257812 59.597656 195.089844 60.761719 196.152344 63.527344 C 196.734375 65.050781 197.367188 65.285156 198.316406 64.335938 C 199.265625 63.386719 199.222656 62.5625 198.167969 61.511719 Z M 170.976562 60.929688 C 174.476562 57.152344 174.867188 55.464844 172.242188 55.464844 C 170.242188 55.464844 166.523438 60.132812 166.523438 62.648438 C 166.523438 65.023438 167.554688 64.625 170.976562 60.929688 Z M 205.140625 60.722656 C 205.890625 58.460938 203.296875 58.9375 202.421875 61.21875 C 201.953125 62.441406 202.234375 63.015625 203.152344 62.707031 C 203.972656 62.433594 204.867188 61.539062 205.140625 60.722656 Z M 153.398438 60.402344 C 153.855469 59.667969 153.8125 58.679688 153.300781 58.207031 C 152.792969 57.734375 152.136719 58.023438 151.839844 58.847656 C 151.546875 59.671875 150.492188 60.035156 149.503906 59.652344 C 148.511719 59.273438 147.699219 59.585938 147.699219 60.351562 C 147.699219 62.128906 152.308594 62.171875 153.398438 60.402344 Z M 165.707031 58.476562 C 166.984375 56.726562 167.691406 54.960938 167.28125 54.550781 C 166.238281 53.507812 161.503906 58.011719 161.503906 60.054688 C 161.503906 62.621094 163.132812 62.011719 165.707031 58.476562 Z M 190.367188 60.628906 C 190.367188 59.046875 184.039062 55.105469 183.0625 56.078125 C 182.613281 56.527344 183.652344 57.972656 185.367188 59.289062 C 188.785156 61.914062 190.367188 62.339844 190.367188 60.628906 Z M 196.1875 56.988281 C 193.992188 54.785156 190.496094 56.308594 191.238281 59.144531 C 191.734375 61.054688 192.292969 61.1875 194.8125 60.003906 C 197.242188 58.863281 197.5 58.304688 196.1875 56.988281 Z M 202.722656 57.410156 C 202.988281 56.050781 202.625 55.5 201.800781 56.007812 C 200.875 56.578125 200.707031 55.527344 201.265625 52.707031 C 202.042969 48.78125 201.960938 48.660156 199.675781 50.386719 C 197.785156 51.816406 197.605469 51.832031 198.839844 50.449219 C 199.703125 49.480469 200.40625 47.320312 200.40625 45.648438 C 200.40625 42.960938 200.164062 42.808594 198.320312 44.332031 C 196.433594 45.890625 196.371094 45.792969 197.691406 43.3125 C 198.496094 41.804688 199.152344 39.125 199.152344 37.351562 C 199.152344 35.582031 199.574219 34.195312 200.09375 34.269531 C 202.230469 34.578125 206.683594 32.484375 206.699219 31.164062 C 206.710938 30.300781 207.140625 30.402344 207.785156 31.421875 C 208.621094 32.738281 209.636719 32.378906 212.472656 29.765625 C 219.503906 23.28125 220.082031 22.839844 221.457031 22.839844 C 224.277344 22.839844 224.210938 20.414062 221.304688 17.277344 C 219.660156 15.503906 217.148438 14.054688 215.726562 14.054688 C 213.171875 14.054688 209.191406 17.058594 209.191406 18.988281 C 209.191406 19.535156 207.914062 19.738281 206.355469 19.4375 C 204.457031 19.074219 202.523438 19.960938 200.492188 22.121094 C 198.824219 23.898438 198.070312 25.347656 198.816406 25.347656 C 199.5625 25.347656 199.875 26.476562 199.515625 27.859375 C 199.132812 29.316406 199.476562 30.367188 200.335938 30.367188 C 201.144531 30.367188 201.457031 30.941406 201.023438 31.644531 C 200.589844 32.34375 199.820312 32.664062 199.316406 32.351562 C 197.613281 31.300781 195.085938 42.785156 195.953125 47.625 C 197.902344 58.507812 201.503906 63.710938 202.722656 57.410156 Z M 203.933594 28.238281 C 205.53125 27.921875 207.140625 26.863281 207.515625 25.886719 C 207.894531 24.910156 208.679688 24.40625 209.269531 24.769531 C 211.527344 26.164062 208.941406 28.589844 205.082031 28.699219 C 202.410156 28.777344 202.023438 28.621094 203.933594 28.238281 Z M 202.289062 24.09375 C 202.714844 23.402344 204.019531 22.847656 205.1875 22.859375 C 207.015625 22.875 207.050781 23.046875 205.425781 24.09375 C 202.96875 25.683594 201.308594 25.683594 202.289062 24.09375 Z M 219.59375 57.976562 C 219.234375 56.597656 218.375 55.464844 217.683594 55.464844 C 216.992188 55.464844 216.722656 54.335938 217.085938 52.957031 C 217.511719 51.324219 217.125 50.445312 215.976562 50.445312 C 213.613281 50.445312 213.710938 55.351562 216.09375 56.269531 C 217.128906 56.664062 217.976562 57.777344 217.976562 58.738281 C 217.976562 59.699219 218.488281 60.484375 219.113281 60.484375 C 219.738281 60.484375 219.957031 59.355469 219.59375 57.976562 Z M 161.503906 54.035156 C 161.503906 53.292969 160.613281 53.03125 159.519531 53.449219 C 158.429688 53.867188 157.300781 54.210938 157.011719 54.210938 C 156.722656 54.210938 156.484375 55.078125 156.484375 56.136719 C 156.484375 57.675781 156.992188 57.792969 158.996094 56.722656 C 160.375 55.984375 161.503906 54.773438 161.503906 54.035156 Z M 190.367188 54.136719 C 190.367188 53.488281 189.804688 52.957031 189.113281 52.957031 C 188.421875 52.957031 187.859375 53.835938 187.859375 54.914062 C 187.859375 55.988281 188.421875 56.519531 189.113281 56.09375 C 189.804688 55.667969 190.367188 54.789062 190.367188 54.136719 Z M 156.484375 50.847656 C 156.484375 49.25 156.136719 49.175781 154.617188 50.4375 C 153.589844 51.289062 153.0625 52.496094 153.449219 53.121094 C 154.4375 54.722656 156.484375 53.191406 156.484375 50.847656 Z M 194.585938 52.328125 C 194.191406 51.292969 193.644531 50.445312 193.371094 50.445312 C 193.101562 50.445312 192.878906 51.292969 192.878906 52.328125 C 192.878906 53.363281 193.425781 54.210938 194.09375 54.210938 C 194.761719 54.210938 194.984375 53.363281 194.585938 52.328125 Z M 228.015625 53.046875 C 228.015625 51.539062 224.414062 47.9375 222.90625 47.9375 C 221.351562 47.9375 221.410156 44.523438 222.980469 43.554688 C 223.664062 43.132812 223.917969 43.578125 223.546875 44.550781 C 222.789062 46.523438 228.652344 50.976562 230.503906 49.832031 C 232.710938 48.46875 230.351562 45.667969 227.285156 46.003906 C 225.597656 46.1875 224.292969 45.710938 224.382812 44.941406 C 224.875 40.761719 224.148438 39.414062 221.742188 40.042969 C 218.199219 40.96875 218.382812 47.453125 222.054688 51.125 C 225.003906 54.074219 228.015625 55.042969 228.015625 53.046875 Z M 167.859375 50.132812 L 167.9375 47.308594 L 169.074219 50.132812 C 170.433594 53.519531 173.96875 53.914062 173.722656 50.65625 C 173.628906 49.390625 172.957031 48.265625 172.234375 48.160156 C 171.507812 48.050781 169.777344 47.789062 168.382812 47.574219 C 164.375 46.964844 162.808594 45.519531 163.640625 43.191406 C 164.066406 42.003906 163.953125 41.453125 163.390625 41.964844 C 162.824219 42.476562 161.558594 42.226562 160.574219 41.410156 C 158.742188 39.890625 153.59375 38.980469 154.292969 40.300781 C 154.507812 40.703125 155.460938 42.589844 156.414062 44.484375 C 158.21875 48.085938 160.234375 49.070312 160.269531 46.367188 C 160.28125 45.507812 161.46875 46.636719 162.902344 48.878906 C 165.957031 53.644531 167.746094 54.097656 167.859375 50.132812 Z M 185.035156 51.328125 C 185.898438 50.671875 186.601562 49.058594 186.601562 47.738281 C 186.601562 45.753906 186.183594 45.5625 184.175781 46.636719 C 182.839844 47.351562 180.648438 47.9375 179.300781 47.9375 C 177.910156 47.9375 176.574219 49.019531 176.199219 50.457031 C 175.632812 52.621094 176.101562 52.945312 179.503906 52.746094 C 181.683594 52.617188 184.171875 51.980469 185.035156 51.324219 Z M 215.988281 46.269531 C 217.082031 45.847656 217.976562 44.234375 217.976562 42.675781 C 217.976562 40.042969 217.714844 40.136719 214.136719 44.050781 C 211.648438 46.773438 210.589844 48.96875 211.125 50.292969 C 211.828125 52.027344 212.105469 51.9375 212.976562 49.679688 C 213.539062 48.222656 214.894531 46.6875 215.988281 46.269531 Z M 207.9375 41.664062 C 207.9375 39.761719 204.683594 40.160156 202.929688 42.273438 C 202.078125 43.300781 201.714844 45.007812 202.121094 46.066406 C 202.75 47.710938 203.234375 47.621094 205.398438 45.457031 C 206.792969 44.058594 207.9375 42.351562 207.9375 41.664062 Z M 234.699219 43.769531 C 235.519531 44.265625 235.410156 43.71875 234.449219 42.53125 C 232.457031 40.078125 234.222656 39.648438 236.734375 41.976562 C 238.085938 43.230469 238.246094 43.230469 237.535156 41.976562 C 237.050781 41.113281 237.25 40.40625 237.980469 40.40625 C 239.976562 40.40625 239.578125 35.917969 237.425781 34.132812 C 236.390625 33.273438 235.542969 31.578125 235.542969 30.367188 C 235.542969 27.785156 233.894531 26.359375 228.375 24.171875 C 224.949219 22.8125 224.046875 22.863281 222.414062 24.5 C 219.417969 27.492188 220.011719 30.367188 223.621094 30.367188 C 225.347656 30.367188 226.761719 30.878906 226.761719 31.507812 C 226.761719 32.132812 225.664062 32.355469 224.320312 32.003906 C 222.980469 31.65625 220.160156 32.226562 218.058594 33.277344 C 214.4375 35.082031 214.296875 35.0625 215.460938 32.886719 C 216.136719 31.621094 217.40625 30.332031 218.273438 30.023438 C 219.144531 29.710938 219.535156 29.105469 219.140625 28.671875 C 218.074219 27.503906 211.722656 30.757812 211.710938 32.476562 C 211.707031 33.289062 212.640625 34.890625 213.785156 36.039062 C 215.730469 37.984375 215.667969 38.09375 212.84375 37.699219 C 210.417969 37.355469 209.820312 37.828125 209.820312 40.09375 C 209.820312 42.605469 211.601562 44.328125 211.769531 41.976562 C 211.804688 41.457031 213.214844 40.3125 214.90625 39.425781 C 216.59375 38.542969 217.976562 36.988281 217.976562 35.976562 C 217.976562 34.960938 218.539062 34.132812 219.230469 34.132812 C 219.921875 34.132812 220.484375 34.980469 220.484375 36.015625 C 220.484375 37.824219 222.480469 38.425781 226.996094 37.976562 C 228.160156 37.863281 229.769531 38.992188 230.570312 40.492188 C 231.433594 42.105469 231.5 42.894531 230.738281 42.421875 C 230.027344 41.980469 229.035156 42.28125 228.535156 43.089844 C 227.964844 44.011719 228.171875 44.222656 229.085938 43.660156 C 229.925781 43.140625 230.921875 43.722656 231.4375 45.035156 C 232.28125 47.175781 232.359375 47.179688 232.777344 45.097656 C 233.042969 43.792969 233.828125 43.25 234.699219 43.769531 Z M 234.070312 39.5625 C 232.917969 39.253906 231.074219 37.632812 229.972656 35.957031 C 228.328125 33.441406 228.253906 32.464844 229.550781 30.382812 C 230.417969 28.996094 231.839844 27.859375 232.710938 27.859375 C 234.550781 27.859375 234.855469 32.378906 233.089844 33.472656 C 231.417969 34.503906 232.921875 37.898438 235.050781 37.898438 C 236.011719 37.898438 236.800781 38.460938 236.800781 39.152344 C 236.800781 39.84375 236.65625 40.34375 236.484375 40.261719 C 236.3125 40.183594 235.226562 39.867188 234.070312 39.5625 Z M 233.035156 31.382812 C 233.035156 29.734375 230.183594 30.769531 229.558594 32.644531 C 229.25 33.5625 229.824219 33.839844 231.046875 33.371094 C 232.140625 32.953125 233.035156 32.058594 233.035156 31.382812 Z M 146.445312 38.597656 C 146.445312 36.851562 141.894531 32.878906 139.894531 32.878906 C 137.835938 32.878906 139.042969 36.425781 141.742188 38.304688 C 145.320312 40.800781 146.445312 40.871094 146.445312 38.597656 Z M 149.695312 35.707031 C 148.324219 34.335938 147.382812 36.515625 148.367188 38.785156 C 149.300781 40.933594 149.367188 40.933594 149.890625 38.742188 C 150.1875 37.480469 150.101562 36.113281 149.695312 35.707031 Z M 209.191406 36.507812 C 209.191406 34.4375 206.304688 33.910156 203.425781 35.453125 C 198.546875 38.0625 199.519531 40.445312 204.800781 38.824219 C 207.214844 38.082031 209.191406 37.039062 209.191406 36.507812 Z M 135.078125 33.417969 C 133.8125 31.890625 133.910156 31.707031 135.632812 32.367188 C 137.289062 33.003906 137.714844 32.421875 137.679688 29.574219 C 137.652344 27.59375 137.957031 24 138.355469 21.585938 C 138.832031 18.699219 138.449219 16.34375 137.242188 14.714844 C 135.609375 12.515625 135.054688 12.425781 132.261719 13.921875 C 130.53125 14.847656 128.410156 15.167969 127.550781 14.636719 C 126.535156 14.007812 126.296875 14.179688 126.875 15.117188 C 127.40625 15.972656 126.972656 16.566406 125.816406 16.566406 C 122.46875 16.566406 123.667969 20.167969 127.710938 22.257812 C 130.878906 23.894531 131.292969 24.578125 130.046875 26.078125 C 128.84375 27.53125 128.953125 28.371094 130.585938 30.175781 C 132.859375 32.691406 133.347656 34.71875 131.386719 33.503906 C 130.699219 33.078125 130.132812 33.289062 130.132812 33.972656 C 130.132812 34.660156 131.261719 35.578125 132.644531 36.015625 C 134.023438 36.453125 135.21875 37.480469 135.296875 38.296875 C 135.378906 39.113281 135.707031 38.765625 136.03125 37.523438 C 136.351562 36.28125 135.921875 34.433594 135.078125 33.417969 Z M 131.652344 27.359375 C 132.542969 26.390625 133.46875 25.789062 133.710938 26.019531 C 134.453125 26.726562 132.566406 29.113281 131.265625 29.113281 C 130.585938 29.113281 130.761719 28.324219 131.652344 27.359375 Z M 149.386719 33.726562 C 149.839844 34.179688 150.203125 32.621094 150.191406 30.265625 C 150.179688 27.417969 149.8125 26.542969 149.105469 27.660156 C 148.328125 28.890625 147.871094 28.460938 147.414062 26.082031 C 146.90625 23.433594 147.113281 23.085938 148.5 24.238281 C 152.058594 27.191406 150.035156 23.242188 146.316406 19.980469 C 142.554688 16.679688 139.902344 15.5625 140.425781 17.507812 C 140.566406 18.023438 140.238281 20.660156 139.703125 23.363281 C 138.828125 27.761719 139.097656 28.636719 142.273438 31.679688 C 144.484375 33.800781 146.332031 34.671875 147.1875 33.988281 C 147.941406 33.390625 148.929688 33.273438 149.386719 33.726562 Z M 142.054688 26.605469 C 139.632812 25.5625 139.644531 25.523438 142.292969 25.4375 C 143.804688 25.386719 145.390625 25.914062 145.820312 26.605469 C 146.734375 28.089844 145.507812 28.089844 142.054688 26.605469 Z M 171.285156 30.910156 C 172.855469 29.8125 173.71875 28.289062 173.246094 27.460938 C 172.777344 26.644531 173.792969 27.246094 175.5 28.800781 C 179.105469 32.078125 186.289062 32.648438 187.402344 29.75 C 187.796875 28.71875 188.625 28.183594 189.246094 28.566406 C 189.863281 28.949219 190.367188 28.664062 190.367188 27.933594 C 190.367188 26.148438 188.734375 26.253906 186.667969 28.171875 C 185.605469 29.160156 185.28125 29.203125 185.792969 28.289062 C 186.242188 27.488281 186.078125 25.511719 185.429688 23.894531 C 184.78125 22.28125 184.214844 21.601562 184.171875 22.390625 C 184.128906 23.179688 183.167969 24.179688 182.035156 24.617188 C 180.296875 25.28125 180.226562 25.101562 181.585938 23.464844 C 184.105469 20.425781 182.097656 19.816406 179.179688 22.734375 C 177.742188 24.171875 175.824219 25.347656 174.921875 25.347656 C 172.832031 25.347656 169.554688 22.769531 168.542969 20.328125 C 168.113281 19.292969 168.085938 20.097656 168.476562 22.117188 C 169.082031 25.214844 168.910156 25.550781 167.378906 24.28125 C 165.933594 23.082031 165.40625 23.1875 164.789062 24.792969 C 163.742188 27.523438 163.800781 27.859375 165.34375 27.859375 C 166.074219 27.859375 166.414062 27.433594 166.09375 26.917969 C 165.777344 26.398438 167.0625 25.921875 168.949219 25.851562 C 171.070312 25.777344 172.378906 26.382812 172.378906 27.441406 C 172.378906 28.519531 171.542969 28.882812 170.105469 28.429688 C 168.855469 28.03125 166.832031 28.289062 165.609375 29 C 164.253906 29.789062 164.027344 30.308594 165.03125 30.332031 C 165.933594 30.351562 166.324219 30.933594 165.898438 31.625 C 164.699219 33.5625 168.148438 33.105469 171.285156 30.910156 Z M 230.542969 167.253906 C 230.535156 163.515625 230.78125 160.714844 231.09375 161.027344 C 232.238281 162.171875 232.636719 170.78125 231.617188 172.390625 C 230.972656 173.40625 230.554688 171.40625 230.542969 167.253906 Z M 147.804688 167.652344 C 149.042969 167.277344 149.792969 165.625 149.792969 163.273438 C 149.792969 161.195312 150.839844 158.542969 152.128906 157.367188 C 154.328125 155.351562 154.371094 155.351562 152.859375 157.367188 C 151.972656 158.546875 151.160156 161.363281 151.042969 163.628906 C 150.886719 166.746094 150.226562 167.808594 148.328125 168.003906 C 146.792969 168.160156 146.589844 168.027344 147.804688 167.65625 Z M 137.109375 163.863281 C 136.65625 162.058594 136.566406 160.296875 136.910156 159.953125 C 137.257812 159.605469 137.902344 160.769531 138.347656 162.539062 C 138.90625 164.769531 140.171875 165.90625 142.484375 166.261719 C 145.546875 166.734375 145.5 166.789062 141.875 166.960938 C 138.597656 167.117188 137.792969 166.597656 137.109375 163.863281 Z M 130.710938 148.402344 C 131.113281 147.753906 130.628906 146.765625 129.640625 146.207031 C 126.988281 144.707031 128.503906 138.289062 131.507812 138.289062 C 132.890625 138.289062 134.136719 137.132812 134.546875 135.464844 C 135.667969 130.953125 135.859375 114.433594 134.882812 106.914062 C 134.320312 102.589844 134.390625 101.183594 135.070312 103.148438 C 135.667969 104.875 136.210938 108.234375 136.28125 110.617188 C 136.429688 115.707031 138.453125 114.472656 139.257812 108.796875 C 139.691406 105.765625 139.832031 106.058594 139.984375 110.304688 C 140.085938 113.203125 139.324219 118.828125 138.289062 122.804688 C 137.253906 126.777344 136.40625 131.953125 136.40625 134.304688 C 136.40625 138 136.753906 138.488281 138.988281 137.90625 C 140.628906 137.476562 141.394531 137.765625 141.085938 138.699219 C 140.820312 139.507812 139.238281 140.335938 137.566406 140.539062 C 134.722656 140.882812 130.171875 147.070312 132.761719 147.070312 C 133.386719 147.070312 133.898438 147.636719 133.898438 148.328125 C 133.898438 149.015625 133.015625 149.582031 131.941406 149.582031 C 130.863281 149.582031 130.3125 149.050781 130.710938 148.402344 Z M 133.019531 142 C 133.453125 140.34375 133.167969 139.574219 132.230469 139.882812 C 131.421875 140.148438 130.570312 141.65625 130.339844 143.230469 C 129.832031 146.703125 132.054688 145.679688 133.019531 142 Z M 220.519531 143.976562 C 219.679688 142.964844 219.210938 141.476562 219.480469 140.667969 C 219.75 139.859375 220.945312 140.6875 222.140625 142.507812 C 224.417969 145.984375 223.144531 147.140625 220.519531 143.976562 Z M 188.65625 141.425781 C 189.054688 140.390625 189.542969 139.542969 189.738281 139.542969 C 189.9375 139.542969 190.421875 140.390625 190.820312 141.425781 C 191.253906 142.558594 190.828125 143.308594 189.738281 143.308594 C 188.652344 143.308594 188.222656 142.558594 188.65625 141.425781 Z M 185.347656 139.617188 C 185.347656 138.195312 185.910156 137.03125 186.601562 137.03125 C 187.292969 137.03125 187.855469 137.847656 187.855469 138.839844 C 187.855469 139.835938 187.292969 140.996094 186.601562 141.425781 C 185.910156 141.851562 185.347656 141.039062 185.347656 139.617188 Z M 181.582031 138.839844 C 181.582031 137.765625 182.148438 137.234375 182.835938 137.660156 C 183.527344 138.085938 184.09375 138.964844 184.09375 139.617188 C 184.09375 140.265625 183.527344 140.796875 182.835938 140.796875 C 182.148438 140.796875 181.582031 139.917969 181.582031 138.839844 Z M 160.25 135.851562 C 160.25 132.820312 160.945312 132.515625 161.941406 135.109375 C 162.332031 136.121094 162.109375 137.285156 161.449219 137.695312 C 160.789062 138.101562 160.25 137.273438 160.25 135.851562 Z M 185.445312 132.535156 C 185.507812 131.074219 185.804688 130.777344 186.203125 131.777344 C 186.566406 132.683594 186.523438 133.765625 186.105469 134.183594 C 185.6875 134.597656 185.390625 133.859375 185.445312 132.535156 Z M 183.660156 126.367188 C 184.082031 123.605469 184.632812 121.109375 184.886719 120.824219 C 185.835938 119.746094 185.125 126.464844 184.035156 128.875 C 183.242188 130.625 183.128906 129.863281 183.660156 126.367188 Z M 191.820312 106.914062 C 191.820312 105.1875 192.105469 104.484375 192.453125 105.347656 C 192.800781 106.207031 192.800781 107.621094 192.453125 108.484375 C 192.105469 109.347656 191.820312 108.640625 191.820312 106.914062 Z M 122.726562 41.289062 C 121.140625 38.644531 121.167969 38.621094 123.328125 40.6875 C 124.570312 41.878906 125.320312 43.125 124.988281 43.457031 C 124.660156 43.785156 123.640625 42.8125 122.726562 41.289062 Z M 114.695312 30.828125 C 113.53125 29.664062 115.214844 26.601562 117.015625 26.601562 C 119.824219 26.601562 120.304688 28.90625 117.78125 30.257812 C 116.472656 30.960938 115.082031 31.214844 114.695312 30.828125 Z M 157.9375 14.050781 C 157.9375 12.328125 158.222656 11.621094 158.570312 12.484375 C 158.917969 13.347656 158.917969 14.757812 158.570312 15.621094 C 158.222656 16.484375 157.9375 15.777344 157.9375 14.050781 Z M 180.328125 16.089844 C 180.328125 15.828125 181.316406 14.839844 182.523438 13.890625 C 184.511719 12.332031 184.558594 12.375 182.996094 14.367188 C 181.359375 16.457031 180.328125 17.121094 180.328125 16.089844 Z M 183.777344 8.167969 C 182.570312 7.851562 181.582031 7.070312 181.582031 6.429688 C 181.582031 4.65625 183.597656 5.042969 185.347656 7.148438 C 186.207031 8.1875 186.699219 8.96875 186.441406 8.886719 C 186.183594 8.808594 184.984375 8.484375 183.777344 8.167969 Z M 172.171875 5.269531 C 172.597656 4.578125 173.195312 4.011719 173.5 4.011719 C 173.804688 4.011719 174.050781 4.578125 174.050781 5.269531 C 174.050781 5.957031 173.453125 6.523438 172.722656 6.523438 C 171.992188 6.523438 171.742188 5.957031 172.171875 5.269531 Z M 172.171875 5.269531 "/></g></g></svg>