<svg xmlns="http://www.w3.org/2000/svg" xmlns:xlink="http://www.w3.org/1999/xlink" height="800" width="1200" viewBox="-19.91337 -11.28325 172.58254 67.6995"><path d="M128.6858 3.5986h.447c.509 0 .941-.188.941-.666 0-.337-.246-.677-.941-.677-.202 0-.338.015-.447.03zm0 2.141h-.615v-3.869c.322-.045.63-.091 1.093-.091.586 0 .971.121 1.201.291.232.17.357.432.357.802 0 .51-.34.817-.757.941v.031c.338.062.57.368.65.939.09.601.181.832.245.956h-.65c-.091-.124-.183-.477-.26-.986-.093-.493-.34-.678-.832-.678h-.432zm.647-4.949c-1.526 0-2.773 1.311-2.773 2.93 0 1.649 1.247 2.943 2.788 2.943 1.543.016 2.775-1.294 2.775-2.929 0-1.633-1.232-2.944-2.775-2.944zm.015-.539c1.895 0 3.408 1.541 3.408 3.469 0 1.957-1.513 3.483-3.423 3.483-1.895 0-3.437-1.526-3.437-3.483 0-1.928 1.542-3.469 3.437-3.469z" fill="#00539b"/><path id="a" d="M35.456 0H3.225C1.452 0 0 1.451 0 3.23v38.672c0 1.774 1.452 3.231 3.225 3.231h32.231c1.774 0 3.221-1.457 3.221-3.231V3.23c0-1.779-1.447-3.23-3.221-3.23" fill="#00539b"/><use xlink:href="#a" height="46" width="134" transform="translate(41.903)"/><use xlink:href="#a" height="46" width="134" transform="translate(83.805)"/><path id="b" d="M10.9343 9.0345c-.356 0-.6563.27-.6563.625v16.7813c0 .353.3003.625.6563.625h2.125c.359 0 .625-.272.625-.625V20.472h9.8125c2.459 0 3.9187-.4963 4.7187-1.6563.78-1.109.8438-2.6614.8438-4.5624 0-2.088-.4523-3.437-1.4063-4.25-.999-.85-2.395-.9688-3.75-.9688zm2.75 3.0313h9.7187c1.908 0 2.2188.5215 2.2188 1.6875v2.0937c0 .966-.3586 1.625-2.0626 1.625h-9.875z" fill="#fff"/><path d="M57.1842 9.0345c-2.321 0-3.859.5132-4.875 1.6563-.935 1.047-1.375 2.597-1.375 4.875v4.9687c0 2.275.44 3.826 1.375 4.875 1.016 1.139 2.554 1.6563 4.875 1.6563h8.4063c2.204 0 3.6507-.47 4.5937-1.5.937-1.021 1.375-2.5405 1.375-4.9375V18.097c0-.364-.2952-.625-.6562-.625h-9.6563c-.352 0-.6562.261-.6562.625v1.75c0 .363.3042.625.6562.625h6.875v1.3125c0 .841-.2112 1.395-.6562 1.75-.445.34-1.135.5-2.125.5H57.403c-1.032 0-1.7457-.151-2.2188-.5-.557-.411-.8437-1.1285-.8437-2.1875v-6.5938c0-1.064.2868-1.7764.8438-2.1874.473-.348 1.1867-.5 2.2187-.5h7.9375c2.062 0 2.4932.7997 2.6562 1.5937.055.3.319.5313.625.5313h2.125c.186 0 .376-.105.5-.25.125-.135.155-.307.125-.5-.471-3.087-2.1872-4.4063-5.7812-4.4063z" fill="#fff"/><use xlink:href="#b" height="46" width="134" transform="translate(83.8125)"/></svg>